<?xml version="1.0" encoding="UTF-8"?>
<svg version="1.1" xmlns="http://www.w3.org/2000/svg" width="1024" height="1024">
<path d="M0 0 C337.92 0 675.84 0 1024 0 C1024 337.92 1024 675.84 1024 1024 C686.08 1024 348.16 1024 0 1024 C0 686.08 0 348.16 0 0 Z " fill="#00B1A1" transform="translate(0,0)"/>
<path d="M0 0 C1.21911575 0.00666183 1.21911575 0.00666183 2.46286011 0.01345825 C3.38366364 0.01360931 4.30446716 0.01376038 5.25317383 0.01391602 C6.2490451 0.02423859 7.24491638 0.03456116 8.27096558 0.04519653 C9.28915375 0.04802643 10.30734192 0.05085632 11.35638428 0.05377197 C14.61709208 0.06499133 17.87752791 0.09009907 21.13815308 0.11550903 C23.34518037 0.12553656 25.55221195 0.13466281 27.75924683 0.14285278 C33.1773088 0.16493636 38.59521151 0.19843108 44.01315308 0.24050903 C46.22076823 4.8647486 47.38165781 8.08090784 47.16549683 13.28738403 C47.13778198 14.37921997 47.11006714 15.47105591 47.08151245 16.59597778 C46.99366553 18.87475318 46.9024742 21.15340191 46.80807495 23.43191528 C46.78164917 24.51859497 46.75522339 25.60527466 46.72799683 26.72488403 C46.66793457 28.20553345 46.66793457 28.20553345 46.60665894 29.71609497 C46.75971493 32.39433212 46.75971493 32.39433212 49.00216675 33.95266724 C49.66579224 34.37765503 50.32941772 34.80264282 51.01315308 35.24050903 C51.47409058 37.36160278 51.47409058 37.36160278 51.38815308 39.67800903 C51.37526245 40.43984497 51.36237183 41.20168091 51.34909058 41.98660278 C50.98119839 44.45490271 50.32494474 46.12396575 49.01315308 48.24050903 C48.02315308 48.73550903 48.02315308 48.73550903 47.01315308 49.24050903 C45.99667274 56.67856357 47.47928299 61.30898478 51.74362183 67.43191528 C55.7893127 72.43854478 60.34209038 76.81746736 65.01315308 81.24050903 C65.85362183 82.09000122 66.69409058 82.93949341 67.56002808 83.81472778 C69.83649574 86.06582081 72.19359149 88.11362174 74.63815308 90.17800903 C85.3744077 99.83903338 94.72348656 111.60364883 97.01315308 126.24050903 C97.16975158 129.47083128 97.17711899 132.69822235 97.18112183 135.93191528 C97.18445023 136.87300644 97.18777863 137.8140976 97.19120789 138.78370667 C97.19626332 140.77491774 97.19861664 142.76613725 97.19845581 144.75735474 C97.20062794 147.76816245 97.21875867 150.77859489 97.23776245 153.78933716 C97.3007468 175.37772785 97.3007468 175.37772785 94.01315308 185.24050903 C93.35315308 185.24050903 92.69315308 185.24050903 92.01315308 185.24050903 C91.79659058 186.66363403 91.79659058 186.66363403 91.57565308 188.11550903 C91.01315308 191.24050903 91.01315308 191.24050903 90.01315308 193.24050903 C89.48748127 199.86397377 90.59430372 204.42843692 92.99752808 210.58035278 C100.06670116 229.09614844 98.34083965 250.7948948 98.34766722 270.27414942 C98.34910309 272.58092717 98.35339871 274.88768217 98.35866165 277.19445419 C98.37704628 285.26320624 98.38534456 293.33189297 98.38375854 301.40066528 C98.38255156 308.89341202 98.40379205 316.38587337 98.43524587 323.87854779 C98.46142578 330.34778563 98.47212554 336.81693005 98.47084773 343.28622043 C98.47033977 347.13498952 98.47593412 350.98350247 98.49720383 354.83221817 C98.51662252 358.44241452 98.51668657 362.05211049 98.50217056 365.66232491 C98.49909925 367.60725977 98.51572211 369.55219496 98.53305054 371.49705505 C98.48249307 378.55655825 97.77673453 383.21741419 94.01315308 389.24050903 C93.35315308 389.24050903 92.69315308 389.24050903 92.01315308 389.24050903 C91.74502808 389.83863403 91.47690308 390.43675903 91.20065308 391.05300903 C89.49322447 394.19827225 88.02349582 395.84530031 84.64723206 397.16596985 C78.54615258 398.77516534 72.8349809 399.75297013 66.53268433 399.91629028 C65.10881157 399.96551384 65.10881157 399.96551384 63.65617371 400.01573181 C47.61620947 400.48964246 31.55686734 400.42741344 15.51144409 400.42581177 C10.63779011 400.4257091 5.7642784 400.43950706 0.89065838 400.45658398 C-2.90563103 400.46772996 -6.70188584 400.46973039 -10.49818993 400.46920204 C-12.29576304 400.47037259 -14.09333733 400.47474164 -15.89089394 400.48253441 C-40.41567924 400.57916104 -40.41567924 400.57916104 -47.98684692 394.24050903 C-54.89337432 387.33398164 -57.43130427 379.23326764 -57.48452759 369.57133484 C-57.47014648 368.51325119 -57.45576538 367.45516754 -57.44094849 366.36502075 C-57.44153259 365.22239273 -57.4421167 364.07976471 -57.44271851 362.9025116 C-57.43995095 359.15808823 -57.40892047 355.41447937 -57.37747192 351.67019653 C-57.37000485 349.06132441 -57.36431412 346.45244665 -57.36032104 343.84356689 C-57.3479413 337.69909139 -57.31518853 331.55490417 -57.27492309 325.41055501 C-57.23004843 318.40928801 -57.20817912 311.40800648 -57.18814135 304.40663123 C-57.14645059 290.01776971 -57.07619718 275.62914965 -56.98684692 261.24050903 C-56.32684692 261.24050903 -55.66684692 261.24050903 -54.98684692 261.24050903 C-54.99208374 260.19072876 -54.99732056 259.14094849 -55.00271606 258.05935669 C-55.02078931 254.17183278 -55.03228747 250.2843126 -55.04177856 246.39675903 C-55.04681345 244.71283341 -55.05364174 243.02891218 -55.06228638 241.34500122 C-55.07438889 238.927347 -55.0800836 236.50975047 -55.08450317 234.09207153 C-55.08966446 233.33681183 -55.09482574 232.58155212 -55.10014343 231.80340576 C-55.10071863 226.46825245 -55.10071863 226.46825245 -53.98684692 224.24050903 C-53.90434692 222.96175903 -53.82184692 221.68300903 -53.73684692 220.36550903 C-53.06865329 213.51652425 -50.03630418 207.33942354 -46.98684692 201.24050903 C-46.4082712 196.38047298 -47.62772206 193.41314629 -49.91653442 189.26785278 C-52.66205847 184.06738935 -53.48188045 179.39873257 -54.04934692 173.61550903 C-54.59366129 167.8481922 -54.59366129 167.8481922 -55.98684692 162.24050903 C-56.0825469 159.90741582 -56.11758606 157.57165699 -56.11965942 155.23660278 C-56.12061615 154.55751358 -56.12157288 153.87842438 -56.12255859 153.17875671 C-56.12323816 151.74564521 -56.12139945 150.31253061 -56.11721802 148.87942505 C-56.11185827 146.6826591 -56.11717474 144.48609683 -56.12356567 142.28933716 C-56.12290502 140.89675858 -56.12162411 139.50418013 -56.11965942 138.11160278 C-56.11853149 136.84244019 -56.11740356 135.57327759 -56.11624146 134.26565552 C-55.98684692 131.24050903 -55.98684692 131.24050903 -54.98684692 129.24050903 C-54.72104199 127.38854203 -54.47386742 125.53387953 -54.23684692 123.67800903 C-53.26932809 117.64906705 -51.31724839 113.30231187 -47.98684692 108.24050903 C-47.38872192 107.27113403 -46.79059692 106.30175903 -46.17434692 105.30300903 C-41.25941121 98.42209904 -36.27325156 92.1280564 -29.74465942 86.71316528 C-27.81877897 85.14999234 -27.81877897 85.14999234 -25.61184692 82.80300903 C-23.98684692 81.24050903 -23.98684692 81.24050903 -21.98684692 81.24050903 C-21.71872192 80.64238403 -21.45059692 80.04425903 -21.17434692 79.42800903 C-19.98767286 77.2420305 -18.8908558 75.82718309 -16.98684692 74.24050903 C-16.32684692 74.24050903 -15.66684692 74.24050903 -14.98684692 74.24050903 C-14.72001099 73.66300903 -14.45317505 73.08550903 -14.17825317 72.49050903 C-12.56853894 69.45052412 -10.46803009 66.92110997 -8.32669067 64.24050903 C-5.53989783 60.08063166 -5.31375243 55.12475884 -5.98684692 50.24050903 C-6.89608608 47.93996523 -6.89608608 47.93996523 -8.04934692 45.67800903 C-10.19673228 41.33803021 -10.17451261 38.89219964 -8.98684692 34.24050903 C-7.33684692 33.58050903 -5.68684692 32.92050903 -3.98684692 32.24050903 C-4.00255737 30.89303589 -4.00255737 30.89303589 -4.01858521 29.51834106 C-4.05264163 26.18986456 -4.07773311 22.86157281 -4.09671021 19.5329895 C-4.10677655 18.09155356 -4.12043073 16.65013808 -4.13772583 15.20877075 C-4.16194704 13.1385697 -4.17332334 11.06863827 -4.18215942 8.99832153 C-4.19786987 7.12877808 -4.19786987 7.12877808 -4.21389771 5.22146606 C-3.95768396 1.85762757 -3.5328144 0.42764934 0 0 Z " fill="#03B1A1" transform="translate(475.9868469238281,362.7594909667969)"/>
<path d="M0 0 C2.26424616 0.00315524 4.52717429 -0.02037508 6.79125977 -0.0456543 C19.17856668 -0.10073295 30.54653442 1.22242613 41.96508789 6.31567383 C42.95508789 6.62504883 43.94508789 6.93442383 44.96508789 7.25317383 C49.7151848 8.93549982 53.77405311 11.52165064 57.96508789 14.31567383 C60.28617458 15.02380197 62.61885936 15.69591535 64.96508789 16.31567383 C64.96508789 16.97567383 64.96508789 17.63567383 64.96508789 18.31567383 C65.51938477 18.57348633 66.07368164 18.83129883 66.64477539 19.09692383 C77.77401745 24.94258633 88.49416654 34.11083575 94.02758789 45.50317383 C94.94117451 47.49389622 94.94117451 47.49389622 96.96508789 49.31567383 C97.42915039 50.49129883 97.42915039 50.49129883 97.90258789 51.69067383 C98.97044032 54.32889747 100.25665089 56.06053699 101.96508789 58.31567383 C103.46764488 61.19557472 104.86483194 64.08350214 106.15258789 67.06567383 C107.74258835 69.91670914 109.32066761 72.02121514 111.40258789 74.50317383 C118.08024885 82.6135419 124.26368924 91.91287652 128.96508789 101.31567383 C134.46226344 100.34857813 139.14685156 98.9692699 144.06274414 96.31176758 C145.96508789 95.31567383 145.96508789 95.31567383 149.52758789 93.94067383 C153.08418054 92.25937548 155.21802785 90.43399794 157.89868164 87.62036133 C161.06506719 85.62116894 164.25976551 85.71623659 167.96508789 85.31567383 C169.22130226 113.549783 169.08491452 141.78544356 169.03375244 170.04119873 C169.02335924 176.40482241 169.01892122 182.76845029 169.01391602 189.13208008 C169.0033228 201.52662208 168.9863497 213.92114584 168.96508789 226.31567383 C161.08793272 226.4347471 161.08793272 226.4347471 157.96508789 224.31567383 C156.96508789 223.31567383 155.96508789 222.31567383 154.96508789 221.31567383 C149.44366635 217.33511411 143.61027449 214.4102338 137.34008789 211.81567383 C133.96508789 210.31567383 133.96508789 210.31567383 131.26977539 208.48364258 C127.54254298 206.03847238 123.71473838 204.08038419 119.71508789 202.12817383 C118.63614258 201.59546875 118.63614258 201.59546875 117.53540039 201.05200195 C115.68025605 200.13658897 113.82283098 199.22580133 111.96508789 198.31567383 C111.30508789 197.98567383 110.64508789 197.65567383 109.96508789 197.31567383 C109.96508789 196.65567383 109.96508789 195.99567383 109.96508789 195.31567383 C109.28704102 195.1687207 108.60899414 195.02176758 107.91040039 194.87036133 C99.44314845 192.82977707 93.15478453 189.23832511 86.05883789 184.28833008 C80.46770953 180.41921161 75.45328376 177.54170475 68.98852539 175.45629883 C62.68207989 173.07712301 56.84594101 169.58545991 50.96508789 166.31567383 C50.96508789 165.65567383 50.96508789 164.99567383 50.96508789 164.31567383 C49.41821289 163.97536133 49.41821289 163.97536133 47.84008789 163.62817383 C43.62100531 162.45095527 41.14972005 160.26728412 37.96508789 157.31567383 C38.15258789 155.50317383 38.15258789 155.50317383 38.96508789 153.31567383 C47.32016081 147.59826943 58.01447674 145.69072372 67.71508789 143.24536133 C70.856934 142.45933247 70.856934 142.45933247 73.15258789 141.19848633 C74.96508789 140.31567383 74.96508789 140.31567383 78.96508789 140.31567383 C78.588041 133.14466873 76.92676338 128.44737146 73.27758789 122.31567383 C72.82134033 121.52169189 72.36509277 120.72770996 71.89501953 119.90966797 C69.28033232 115.4011544 66.50961169 111.05217388 63.52368164 106.78051758 C61.28466296 103.23961335 59.39533294 99.53172381 57.46508789 95.81567383 C52.3808276 85.57234479 52.3808276 85.57234479 45.30102539 76.71411133 C43.96508789 75.31567383 43.96508789 75.31567383 43.96508789 73.31567383 C43.42883789 73.23961914 42.89258789 73.16356445 42.34008789 73.08520508 C39.03656754 72.01482102 36.74027172 70.08116074 33.96508789 68.00317383 C21.98556327 59.35404231 8.2628971 56.81948813 -6.25756836 58.85864258 C-17.10938843 60.68441166 -28.48500396 64.62735209 -35.23120117 73.97290039 C-35.58150391 74.52171875 -35.93180664 75.07053711 -36.29272461 75.63598633 C-36.86764648 76.5202832 -37.44256836 77.40458008 -38.03491211 78.31567383 C-38.69491211 78.31567383 -39.35491211 78.31567383 -40.03491211 78.31567383 C-40.20506836 78.87254883 -40.37522461 79.42942383 -40.55053711 80.00317383 C-44.04480584 91.00640303 -44.04480584 91.00640303 -47.03491211 95.31567383 C-48.51991211 95.81067383 -48.51991211 95.81067383 -50.03491211 96.31567383 C-51.45188361 99.29175817 -52.52603109 102.33755089 -53.65600586 105.43286133 C-55.12664575 108.50745691 -56.32466089 109.39799096 -59.03491211 111.31567383 C-59.64694109 113.35577043 -60.25678073 115.3965509 -60.85522461 117.44067383 C-63.27611127 123.34058303 -67.27736375 128.43482595 -70.90209961 133.6496582 C-72.79977613 136.44055143 -74.52591358 139.29767676 -76.03491211 142.31567383 C-76.69491211 142.31567383 -77.35491211 142.31567383 -78.03491211 142.31567383 C-78.11741211 143.42942383 -78.19991211 144.54317383 -78.28491211 145.69067383 C-78.53241211 146.88692383 -78.77991211 148.08317383 -79.03491211 149.31567383 C-81.03491211 150.44067383 -81.03491211 150.44067383 -83.03491211 151.31567383 C-83.41364145 152.97261468 -83.73741265 154.64223935 -84.03491211 156.31567383 C-85.24629539 158.7384404 -86.62582551 160.99749909 -88.03491211 163.31567383 C-88.69491211 163.31567383 -89.35491211 163.31567383 -90.03491211 163.31567383 C-90.13803711 164.24379883 -90.24116211 165.17192383 -90.34741211 166.12817383 C-91.09860313 169.61096854 -91.66350083 169.94426255 -94.03491211 172.31567383 C-94.91589927 174.24827648 -94.91589927 174.24827648 -95.53491211 176.31567383 C-96.54162642 179.47963308 -97.67566937 181.01585786 -100.03491211 183.31567383 C-100.84892039 184.68677748 -101.61730549 186.08561288 -102.34741211 187.50317383 C-104.46122319 191.43155165 -106.87674596 194.86989414 -109.60913086 198.38598633 C-111.70492974 201.22249221 -113.35646727 204.21700643 -115.03491211 207.31567383 C-122.8206264 206.41732218 -122.8206264 206.41732218 -126.03491211 204.31567383 C-126.36491211 203.65567383 -126.69491211 202.99567383 -127.03491211 202.31567383 C-128.69129497 201.60579546 -130.3498581 200.90055351 -132.01928711 200.22192383 C-134.80806149 198.96805628 -137.29558093 197.358228 -139.86303711 195.70629883 C-147.99578776 190.49899805 -156.354109 185.55021193 -165.03491211 181.31567383 C-164.59794306 176.50901432 -163.65409255 174.48245671 -160.03491211 171.31567383 C-159.53991211 170.32567383 -159.53991211 170.32567383 -159.03491211 169.31567383 C-158.37491211 169.31567383 -157.71491211 169.31567383 -157.03491211 169.31567383 C-157.08647461 168.60024414 -157.13803711 167.88481445 -157.19116211 167.14770508 C-157.00888464 163.84392602 -156.08463969 161.90891305 -154.53491211 159.00317383 C-154.07084961 158.12016602 -153.60678711 157.2371582 -153.12866211 156.32739258 C-152.76772461 155.66352539 -152.40678711 154.9996582 -152.03491211 154.31567383 C-151.37491211 154.31567383 -150.71491211 154.31567383 -150.03491211 154.31567383 C-149.95241211 153.63504883 -149.86991211 152.95442383 -149.78491211 152.25317383 C-148.81158682 148.44098313 -147.07683756 145.67497054 -145.03491211 142.31567383 C-144.37491211 142.31567383 -143.71491211 142.31567383 -143.03491211 142.31567383 C-142.78741211 141.67629883 -142.53991211 141.03692383 -142.28491211 140.37817383 C-141.21863109 137.76578533 -140.1438821 135.16016705 -139.03491211 132.56567383 C-138.70491211 131.78708008 -138.37491211 131.00848633 -138.03491211 130.20629883 C-137.03491211 128.31567383 -137.03491211 128.31567383 -135.03491211 127.31567383 C-134.31331786 125.67204249 -133.6413979 124.00516997 -133.03491211 122.31567383 C-132.37491211 122.31567383 -131.71491211 122.31567383 -131.03491211 122.31567383 C-130.77323242 121.60926758 -130.51155273 120.90286133 -130.24194336 120.17504883 C-128.95563806 117.127879 -127.41655127 114.40551685 -125.72241211 111.56567383 C-123.53018796 107.86800114 -121.38799888 104.16149774 -119.34741211 100.37817383 C-118.04033513 97.99742647 -116.82325665 96.0562252 -115.09741211 93.94067383 C-112.36188862 90.45909847 -110.4482409 86.65880848 -108.40209961 82.74145508 C-107.03491211 80.31567383 -107.03491211 80.31567383 -105.03491211 78.31567383 C-104.28418792 76.61838437 -103.53715483 74.91902728 -102.83178711 73.20239258 C-101.69399525 70.50850302 -100.36749659 67.91738639 -99.03491211 65.31567383 C-98.37491211 65.31567383 -97.71491211 65.31567383 -97.03491211 65.31567383 C-96.90600586 64.7355957 -96.77709961 64.15551758 -96.64428711 63.55786133 C-94.89756939 57.13083588 -91.31092386 52.28509289 -87.03491211 47.31567383 C-86.70491211 46.32567383 -86.37491211 45.33567383 -86.03491211 44.31567383 C-85.37491211 44.31567383 -84.71491211 44.31567383 -84.03491211 44.31567383 C-83.93694336 43.57317383 -83.83897461 42.83067383 -83.73803711 42.06567383 C-82.9466913 38.97063245 -81.93865676 37.63797241 -79.78491211 35.31567383 C-79.15198242 34.62989258 -78.51905273 33.94411133 -77.86694336 33.23754883 C-77.26237305 32.60333008 -76.65780273 31.96911133 -76.03491211 31.31567383 C-74.76647461 29.95442383 -74.76647461 29.95442383 -73.47241211 28.56567383 C-70.83355368 26.12980451 -68.0196175 24.30547742 -65.03491211 22.31567383 C-63.98303711 21.14004883 -63.98303711 21.14004883 -62.90991211 19.94067383 C-58.53912153 15.949952 -53.35239258 13.82786932 -48.03491211 11.31567383 C-46.72059969 10.63164506 -45.40783241 9.94462964 -44.09741211 9.25317383 C-29.60820806 2.08356769 -15.95259785 -0.04629906 0 0 Z " fill="#FAFDFD" transform="translate(505.034912109375,218.684326171875)"/>
<path d="M0 0 C0 1.65 0 3.3 0 5 C0.6084375 5.06703125 1.216875 5.1340625 1.84375 5.203125 C4 6 4 6 5.34375 8.109375 C5.7253125 8.98078125 6.106875 9.8521875 6.5 10.75 C7.77684534 13.63152935 8.9485786 15.93621668 10.93359375 18.3984375 C13.31322953 21.39434946 14.88262399 24.44008574 16.5625 27.875 C17.43068359 29.63457031 17.43068359 29.63457031 18.31640625 31.4296875 C19.42447985 33.77952339 20.48233991 36.15380785 21.484375 38.55078125 C22.99571505 41.99024842 24.74162832 45.10201569 26.6875 48.3125 C30 53.77846791 30 53.77846791 30 56 C30.99 56.33 31.98 56.66 33 57 C36.37410976 61.95769195 38.87005895 67.44832817 40.9375 73.0625 C42.74144578 77.83765059 45.38981157 81.59403801 48.40234375 85.6875 C49.78390749 87.68722061 50.74664112 89.43890128 51.625 91.6875 C52.74528965 94.38637962 53.66612691 96.04455115 55.375 98.3125 C57.99543855 101.81949411 59.85003569 105.53255036 61.75390625 109.46484375 C63.29403315 112.59820538 64.98303493 115.63018939 66.6953125 118.671875 C68.61229815 122.09260388 70.46775688 125.54611746 72.32421875 129 C73.50449105 131.11293503 74.74214382 133.19432042 76.01953125 135.25 C86.56310761 152.26366513 88.71031791 171.30288199 84.44580078 190.80761719 C83.94225486 193.2839821 83.80072846 195.66375906 83.75 198.1875 C83.16795006 205.65890474 79.93462787 212.20906465 77 219 C76.26460933 220.87256764 75.53450389 222.7472302 74.8125 224.625 C73.47668462 227.95068144 72.13326059 231.09100829 70 234 C69.34 234 68.68 234 68 234 C67.7525 234.86625 67.505 235.7325 67.25 236.625 C65.22132881 242.10241222 62.63083476 245.56421937 58 249 C57.54882812 249.75539063 57.09765625 250.51078125 56.6328125 251.2890625 C54.95209708 254.0795326 53.09723214 256.37825985 50.9375 258.8125 C50.24527344 259.60269531 49.55304688 260.39289063 48.83984375 261.20703125 C47 263 47 263 45 263 C44.67 263.99 44.34 264.98 44 266 C36.814444 273.93512839 27.44826236 280.47219459 17 283 C16.01 283 15.02 283 14 283 C14 283.66 14 284.32 14 285 C10.72234744 286.9059305 7.92835233 287.40829971 4.171875 287.78125 C2.99616943 287.90000488 1.82046387 288.01875977 0.60913086 288.14111328 C-0.66438232 288.2595459 -1.93789551 288.37797852 -3.25 288.5 C-4.2375679 288.59471588 -4.2375679 288.59471588 -5.24508667 288.69134521 C-27.52361796 290.8259714 -49.85676999 292.09107186 -72.22875977 292.65869141 C-73.93890259 292.70582275 -73.93890259 292.70582275 -75.68359375 292.75390625 C-76.68962646 292.77783447 -77.69565918 292.8017627 -78.73217773 292.82641602 C-80.96696764 292.74994135 -80.96696764 292.74994135 -82 294 C-82.16017166 296.80976518 -82.25950534 299.59773596 -82.31640625 302.41015625 C-82.3475779 303.67320839 -82.3475779 303.67320839 -82.37937927 304.96177673 C-82.44496812 307.66193179 -82.50380276 310.36218717 -82.5625 313.0625 C-82.60567637 314.88868241 -82.64929036 316.71485454 -82.69335938 318.54101562 C-82.80065894 323.02723992 -82.90189966 327.5135655 -83 332 C-87.5859375 334.1328125 -87.5859375 334.1328125 -91.3125 332.9375 C-94.76973701 331.25048938 -97.9953352 329.20307877 -101.203125 327.0859375 C-103.11910632 325.83805113 -103.11910632 325.83805113 -106 325 C-106.66 324.01 -107.32 323.02 -108 322 C-110.37111725 320.83149977 -112.67968706 319.79304628 -115.125 318.8125 C-116.11306641 318.40354492 -116.11306641 318.40354492 -117.12109375 317.98632812 C-118.74402083 317.31598868 -120.37158417 316.65689359 -122 316 C-122 315.01 -122 314.02 -122 313 C-124.49051612 311.99489885 -126.98263622 311.00645716 -129.5 310.0703125 C-134.36830861 308.22948331 -137.99374186 306.37369107 -142 303 C-144.6178089 301.56045161 -147.29307002 300.26278619 -150 299 C-149.91848067 296.22834294 -149.52102832 294.51143043 -147.515625 292.54296875 C-146.27428932 291.53769904 -145.03071733 290.53518578 -143.78515625 289.53515625 C-139.26700584 285.64974463 -137.73942258 281.74172486 -137 276 C-136.89150877 273.96935475 -136.82522105 271.93614401 -136.79467773 269.90283203 C-136.77473251 268.72206085 -136.75478729 267.54128967 -136.73423767 266.32473755 C-136.71752518 265.06515228 -136.70081268 263.80556702 -136.68359375 262.5078125 C-136.66281265 261.20673553 -136.64203156 259.90565857 -136.62062073 258.56515503 C-136.56568884 255.12277281 -136.51615348 251.6803337 -136.46777344 248.237854 C-136.41734613 244.71841427 -136.3617714 241.19905614 -136.30664062 237.6796875 C-136.19941292 230.78652921 -136.09789088 223.89329704 -136 217 C-135.07013023 216.59726112 -135.07013023 216.59726112 -134.12147522 216.18638611 C-133.30932053 215.83089188 -132.49716583 215.47539764 -131.66040039 215.10913086 C-130.85486221 214.75813828 -130.04932404 214.40714569 -129.21937561 214.04551697 C-126.65487012 212.83741412 -124.59791649 211.39314646 -122.4375 209.5625 C-117.41069408 205.47985936 -112.34236626 201.87288875 -106.3125 199.4375 C-102.95159333 197.97899333 -100.8358678 196.28874161 -98 194 C-96.09950013 192.74598164 -94.18260097 191.51645817 -92.25 190.3125 C-88.95006695 188.38471402 -88.95006695 188.38471402 -86 186 C-83.5 185.875 -83.5 185.875 -81 186 C-80 187 -80 187 -79.75 190.25 C-79.86706869 198.44480831 -82.35523411 206.38009603 -85.1875 214 C-86.75026325 218.44859245 -87.20038033 222.16564292 -87.11328125 226.875 C-87.09692627 228.02742187 -87.08057129 229.17984375 -87.0637207 230.3671875 C-87.04269287 231.23601562 -87.02166504 232.10484375 -87 233 C-78.23754321 233.04640675 -69.47512893 233.08191151 -60.71257591 233.10362434 C-56.64346338 233.11404711 -52.57443513 233.12817869 -48.50537109 233.15087891 C-44.57611898 233.17266116 -40.64694777 233.18457996 -36.71763992 233.18975449 C-35.22098136 233.19344059 -33.72432707 233.20063863 -32.22770309 233.21146011 C-30.12615246 233.22604678 -28.02493322 233.22797498 -25.92333984 233.22705078 C-24.72865082 233.231492 -23.53396179 233.23593323 -22.30307007 233.24050903 C-17.47618774 232.88904546 -14.01564573 231.67709716 -10 229 C-8.26092227 228.52092286 -6.508857 228.08791018 -4.75 227.6875 C8.15288313 224.30006762 16.4765426 213.08812866 23 202 C28.34151085 192.12578752 27.82324632 180.94196703 28 170 C27.34 170 26.68 170 26 170 C25.79697266 169.14341797 25.79697266 169.14341797 25.58984375 168.26953125 C22.54348938 156.79553783 16.09163769 147.04290247 9.84375 137.0703125 C8.19414247 134.32329657 6.75352442 131.57709927 5.375 128.6875 C3.45968276 124.69564353 1.13910242 121.41020927 -1.58203125 117.93359375 C-4.58740474 113.83535717 -6.62476307 109.55867648 -7.8125 104.625 C-9.26066634 100.2042817 -11.64252162 97.16588536 -14.37890625 93.4453125 C-16.45691632 90.31077201 -17.28302469 87.66454049 -18 84 C-18.66 84 -19.32 84 -20 84 C-20 83.01 -20 82.02 -20 81 C-20.66 81 -21.32 81 -22 81 C-25.42636105 77.35258339 -27.12874995 73.60015638 -29 69 C-29.6725545 67.55544715 -30.36027416 66.11786407 -31.0625 64.6875 C-31.38347656 64.03136719 -31.70445312 63.37523437 -32.03515625 62.69921875 C-33.00247924 60.82035556 -33.00247924 60.82035556 -35 59 C-35.4640625 57.329375 -35.4640625 57.329375 -35.9375 55.625 C-36.93467925 52.22285904 -37.85015811 50.68730237 -40 48 C-40.68132451 46.33927151 -41.34742127 44.672233 -42 43 C-42.99335201 41.32936253 -43.99431758 39.66324401 -45 38 C-45.74670899 36.67641113 -46.47483575 35.34222631 -47.1875 34 C-47.53167969 33.360625 -47.87585938 32.72125 -48.23046875 32.0625 C-49.20076708 29.46190346 -49.42758899 27.75314954 -49 25 C-47.19921875 23.19140625 -47.19921875 23.19140625 -44.6875 21.5625 C-43.77355469 20.96824219 -42.85960937 20.37398438 -41.91796875 19.76171875 C-33.46564614 14.65864312 -24.60435072 9.54164463 -15.37109375 5.98828125 C-12.82748157 5.05752495 -12.82748157 5.05752495 -10.4375 2.9375 C-6.77121202 0.0232711 -4.6625559 0 0 0 Z " fill="#FBFDFD" transform="translate(720,471)"/>
<path d="M0 0 C0.02505615 0.56920166 0.0501123 1.13840332 0.07592773 1.72485352 C0.19293894 4.33757313 0.3151828 6.95002362 0.4375 9.5625 C0.47681641 10.45775391 0.51613281 11.35300781 0.55664062 12.27539062 C0.61948242 13.59506836 0.61948242 13.59506836 0.68359375 14.94140625 C0.72025146 15.74263916 0.75690918 16.54387207 0.79467773 17.36938477 C0.97545738 20.11083797 0.97545738 20.11083797 1.50099182 23.24423218 C1.9710202 26.78188457 2.150009 30.15734475 2.18945312 33.72290039 C2.21452942 35.66641136 2.21452942 35.66641136 2.2401123 37.64918518 C2.24679428 38.33266085 2.25347626 39.01613651 2.26036072 39.72032356 C2.28164733 41.88811953 2.30865215 44.0557815 2.33703613 46.22349548 C2.39640875 50.83644315 2.44860489 55.44945755 2.5 60.0625 C2.55971625 65.39109143 2.62252519 70.71961849 2.69187927 76.0480938 C2.71795233 78.15810361 2.73907218 80.26812191 2.7598877 82.37818909 C2.85514877 89.88702825 3.19727549 97.32152584 3.78060913 104.80766296 C4.08586749 109.2494502 4.12627185 113.66683337 4.09765625 118.1171875 C4.09553383 119.4192363 4.09553383 119.4192363 4.09336853 120.74758911 C4.08787532 123.45676475 4.07534532 126.16585035 4.0625 128.875 C4.05747112 130.73828004 4.05291069 132.6015614 4.04882812 134.46484375 C4.03794131 138.97659595 4.02075454 143.48828285 4 148 C-0.73779297 149.12988281 -0.73779297 149.12988281 -3.09765625 147.9609375 C-6.91694793 144.87816926 -9.96981865 141.88241985 -13 138 C-18.04776913 133.18921533 -23.56526342 128.93717006 -29.09375 124.69921875 C-29.7228125 124.13847656 -30.351875 123.57773437 -31 123 C-31 122.34 -31 121.68 -31 121 C-36.2213392 122.62419504 -36.2213392 122.62419504 -39.4375 126.6875 C-39.7159375 127.8321875 -39.7159375 127.8321875 -40 129 C-40.66 129 -41.32 129 -42 129 C-42.28359375 129.72832031 -42.5671875 130.45664062 -42.859375 131.20703125 C-45.70846158 138.18339052 -49.34644707 144.68118577 -53.26171875 151.10546875 C-59.07101239 160.77892176 -64.68728223 170.55485231 -69 181 C-69.4125 181.99 -69.825 182.98 -70.25 184 C-71.40944726 188.63778903 -71.72485206 193.23688341 -72 198 C-72.13341797 199.52173828 -72.13341797 199.52173828 -72.26953125 201.07421875 C-72.70671948 209.34012635 -70.73248242 215.38356877 -67.41015625 222.78515625 C-66.3317697 225.2436386 -65.51503199 227.38572371 -65 230 C-64.34 230 -63.68 230 -63 230 C-62.9175 230.78375 -62.835 231.5675 -62.75 232.375 C-62.37875 233.674375 -62.37875 233.674375 -62 235 C-60.67631732 235.68562845 -59.34150845 236.34994055 -58 237 C-56.89785769 238.06459974 -55.83632912 239.17238412 -54.8125 240.3125 C-44.93000401 250.38343341 -32.11913197 252.27767853 -18.56397724 252.42808437 C-15.94234171 252.44141386 -13.32088498 252.44125937 -10.69921875 252.44140625 C-8.84982775 252.45320216 -7.0004462 252.46657172 -5.15107727 252.48143005 C-0.31567081 252.51737769 4.51965189 252.5377495 9.35516357 252.55297852 C17.11017241 252.57794666 24.86499644 252.61763226 32.61983299 252.67487907 C35.31579895 252.69112021 38.01158715 252.69497636 40.70759583 252.69789124 C42.36667179 252.70767071 44.02574499 252.71793451 45.68481445 252.72875977 C46.42625702 252.72620682 47.16769958 252.72365387 47.93161011 252.72102356 C53.37483897 252.77418905 58.10355878 253.55177939 63 256 C63.01981934 256.96711914 63.03963867 257.93423828 63.06005859 258.93066406 C63.13709574 262.57640255 63.22564637 266.22179177 63.31738281 269.8671875 C63.35527306 271.4341738 63.39018926 273.00123534 63.421875 274.56835938 C63.05851853 290.16747945 63.05851853 290.16747945 67.57177734 304.57519531 C69 307 69 307 69 311 C55.99973893 311.08690014 43.00034776 311.052796 30 311 C28.53542085 310.99473977 27.07084158 310.9895126 25.60626221 310.98431396 C16.42863263 310.95017741 7.25138972 310.89663881 -1.92594337 310.81448841 C-6.22770286 310.77626321 -10.52926952 310.74461482 -14.83117676 310.72927856 C-18.96409111 310.7141358 -23.09643765 310.67969064 -27.22909737 310.63175392 C-28.7674628 310.61707368 -30.30590795 310.60896372 -31.84434319 310.60809898 C-41.21074448 310.59764137 -49.28026366 309.62986326 -58 306 C-58.65608246 305.73463943 -59.31216492 305.46927887 -59.98812866 305.19587708 C-63.72614013 303.61594405 -67.36185614 301.79563028 -71 300 C-71.8146875 299.59910156 -72.629375 299.19820312 -73.46875 298.78515625 C-79.58234156 295.58843672 -84.80945751 291.5240831 -90 287 C-90.85335937 286.26652344 -91.70671875 285.53304688 -92.5859375 284.77734375 C-101.25475077 276.75678484 -107.2161748 267.06480564 -113.54516602 257.17773438 C-115.04751198 254.84880429 -115.04751198 254.84880429 -117.2421875 252.2890625 C-119.42844226 249.44207297 -120.47850009 246.62146979 -121.6875 243.25 C-122.84815787 239.33833514 -122.84815787 239.33833514 -125 236 C-125.32291797 234.63200204 -125.60834275 233.25506824 -125.875 231.875 C-126.52327489 228.78472721 -127.25822001 226.42158719 -128.5625 223.5 C-132.01101761 215.1036093 -131.24561782 205.25241858 -131.3125 196.3125 C-131.34150391 195.03955078 -131.37050781 193.76660156 -131.40039062 192.45507812 C-131.48037581 180.35270462 -129.45423371 168.80820225 -122 159 C-121.34 159 -120.68 159 -120 159 C-119.80470703 157.90558594 -119.80470703 157.90558594 -119.60546875 156.7890625 C-117.98147533 149.30821538 -114.35458239 142.66751088 -110.6328125 136.046875 C-108.79407817 132.61574396 -107.17056999 129.10509702 -105.5625 125.5625 C-102.89371246 119.70924582 -99.87918616 114.18185844 -96.57421875 108.65625 C-92.17807572 101.25662653 -92.17807572 101.25662653 -90 93 C-90.680625 92.79375 -91.36125 92.5875 -92.0625 92.375 C-94.75173663 91.11620838 -96.22054185 90.02242468 -98.375 88.0625 C-101.67961597 85.11321908 -104.87732446 83.67702056 -109 82 C-112.38677782 80.08596544 -115.69014853 78.04338097 -119 76 C-120.66543741 74.99795409 -122.33176389 73.9973796 -124 73 C-123.70727539 71.13867188 -123.70727539 71.13867188 -123 69 C-120.49283598 67.32265116 -118.09364146 65.89596313 -115.4375 64.5 C-114.74591797 64.12230469 -114.05433594 63.74460937 -113.34179688 63.35546875 C-111.23878596 62.21478622 -109.12313589 61.10272532 -107 60 C-106.28344238 59.62488281 -105.56688477 59.24976563 -104.82861328 58.86328125 C-103.78616455 58.32767578 -103.78616455 58.32767578 -102.72265625 57.78125 C-102.10269775 57.46220703 -101.48273926 57.14316406 -100.84399414 56.81445312 C-99 56 -99 56 -96.89624023 55.52148438 C-94.42721346 54.84247817 -93.38363799 53.35005434 -91.671875 51.52734375 C-86.26457947 46.58750134 -79.40783844 43.04636129 -72.8359375 39.89453125 C-68.65868044 37.85922941 -64.71786307 35.48814688 -60.875 32.875 C-57.36766533 30.58760782 -53.94941932 29.31647311 -50 28 C-50 27.34 -50 26.68 -50 26 C-49.45980225 25.70359619 -48.91960449 25.40719238 -48.36303711 25.10180664 C-44.31530678 22.86862109 -40.29416168 20.60194932 -36.31640625 18.24609375 C-35.53330078 17.78396484 -34.75019531 17.32183594 -33.94335938 16.84570312 C-32.35729534 15.90759634 -30.7739446 14.96488683 -29.19335938 14.01757812 C-24.31058281 11.14889674 -19.48291154 8.87786218 -14.14428711 6.97680664 C-11.88663665 5.94835856 -10.70386659 4.76293147 -9 3 C-8.34 3 -7.68 3 -7 3 C-7 2.34 -7 1.68 -7 1 C-4 0 -4 0 0 0 Z " fill="#FBFDFD" transform="translate(347,450)"/>
<path d="M0 0 C1.21911575 0.00666183 1.21911575 0.00666183 2.46286011 0.01345825 C3.38366364 0.01360931 4.30446716 0.01376038 5.25317383 0.01391602 C6.2490451 0.02423859 7.24491638 0.03456116 8.27096558 0.04519653 C9.28915375 0.04802643 10.30734192 0.05085632 11.35638428 0.05377197 C14.61709208 0.06499133 17.87752791 0.09009907 21.13815308 0.11550903 C23.34518037 0.12553656 25.55221195 0.13466281 27.75924683 0.14285278 C33.1773088 0.16493636 38.59521151 0.19843108 44.01315308 0.24050903 C46.22076823 4.8647486 47.38165781 8.08090784 47.16549683 13.28738403 C47.13778198 14.37921997 47.11006714 15.47105591 47.08151245 16.59597778 C46.99366553 18.87475318 46.9024742 21.15340191 46.80807495 23.43191528 C46.78164917 24.51859497 46.75522339 25.60527466 46.72799683 26.72488403 C46.66793457 28.20553345 46.66793457 28.20553345 46.60665894 29.71609497 C46.75971493 32.39433212 46.75971493 32.39433212 49.00216675 33.95266724 C49.66579224 34.37765503 50.32941772 34.80264282 51.01315308 35.24050903 C51.47409058 37.36160278 51.47409058 37.36160278 51.38815308 39.67800903 C51.37526245 40.43984497 51.36237183 41.20168091 51.34909058 41.98660278 C50.98119839 44.45490271 50.32494474 46.12396575 49.01315308 48.24050903 C48.02315308 48.73550903 48.02315308 48.73550903 47.01315308 49.24050903 C45.99667274 56.67856357 47.47928299 61.30898478 51.74362183 67.43191528 C55.7893127 72.43854478 60.34209038 76.81746736 65.01315308 81.24050903 C65.85362183 82.09000122 66.69409058 82.93949341 67.56002808 83.81472778 C69.83649574 86.06582081 72.19359149 88.11362174 74.63815308 90.17800903 C85.3744077 99.83903338 94.72348656 111.60364883 97.01315308 126.24050903 C97.16975158 129.47083128 97.17711899 132.69822235 97.18112183 135.93191528 C97.18445023 136.87300644 97.18777863 137.8140976 97.19120789 138.78370667 C97.19626332 140.77491774 97.19861664 142.76613725 97.19845581 144.75735474 C97.20062794 147.76816245 97.21875867 150.77859489 97.23776245 153.78933716 C97.3007468 175.37772785 97.3007468 175.37772785 94.01315308 185.24050903 C93.35315308 185.24050903 92.69315308 185.24050903 92.01315308 185.24050903 C91.79659058 186.66363403 91.79659058 186.66363403 91.57565308 188.11550903 C91.01315308 191.24050903 91.01315308 191.24050903 90.01315308 193.24050903 C89.48748127 199.86397377 90.59430372 204.42843692 92.99752808 210.58035278 C100.06670116 229.09614844 98.34083965 250.7948948 98.34766722 270.27414942 C98.34910309 272.58092717 98.35339871 274.88768217 98.35866165 277.19445419 C98.37704628 285.26320624 98.38534456 293.33189297 98.38375854 301.40066528 C98.38255156 308.89341202 98.40379205 316.38587337 98.43524587 323.87854779 C98.46142578 330.34778563 98.47212554 336.81693005 98.47084773 343.28622043 C98.47033977 347.13498952 98.47593412 350.98350247 98.49720383 354.83221817 C98.51662252 358.44241452 98.51668657 362.05211049 98.50217056 365.66232491 C98.49909925 367.60725977 98.51572211 369.55219496 98.53305054 371.49705505 C98.48249307 378.55655825 97.77673453 383.21741419 94.01315308 389.24050903 C93.35315308 389.24050903 92.69315308 389.24050903 92.01315308 389.24050903 C91.74502808 389.83863403 91.47690308 390.43675903 91.20065308 391.05300903 C89.49322447 394.19827225 88.02349582 395.84530031 84.64723206 397.16596985 C78.54615258 398.77516534 72.8349809 399.75297013 66.53268433 399.91629028 C65.10881157 399.96551384 65.10881157 399.96551384 63.65617371 400.01573181 C47.61620947 400.48964246 31.55686734 400.42741344 15.51144409 400.42581177 C10.63779011 400.4257091 5.7642784 400.43950706 0.89065838 400.45658398 C-2.90563103 400.46772996 -6.70188584 400.46973039 -10.49818993 400.46920204 C-12.29576304 400.47037259 -14.09333733 400.47474164 -15.89089394 400.48253441 C-40.41567924 400.57916104 -40.41567924 400.57916104 -47.98684692 394.24050903 C-54.89337432 387.33398164 -57.43130427 379.23326764 -57.48452759 369.57133484 C-57.47014648 368.51325119 -57.45576538 367.45516754 -57.44094849 366.36502075 C-57.44153259 365.22239273 -57.4421167 364.07976471 -57.44271851 362.9025116 C-57.43995095 359.15808823 -57.40892047 355.41447937 -57.37747192 351.67019653 C-57.37000485 349.06132441 -57.36431412 346.45244665 -57.36032104 343.84356689 C-57.3479413 337.69909139 -57.31518853 331.55490417 -57.27492309 325.41055501 C-57.23004843 318.40928801 -57.20817912 311.40800648 -57.18814135 304.40663123 C-57.14645059 290.01776971 -57.07619718 275.62914965 -56.98684692 261.24050903 C-56.32684692 261.24050903 -55.66684692 261.24050903 -54.98684692 261.24050903 C-54.99208374 260.19072876 -54.99732056 259.14094849 -55.00271606 258.05935669 C-55.02078931 254.17183278 -55.03228747 250.2843126 -55.04177856 246.39675903 C-55.04681345 244.71283341 -55.05364174 243.02891218 -55.06228638 241.34500122 C-55.07438889 238.927347 -55.0800836 236.50975047 -55.08450317 234.09207153 C-55.08966446 233.33681183 -55.09482574 232.58155212 -55.10014343 231.80340576 C-55.10071863 226.46825245 -55.10071863 226.46825245 -53.98684692 224.24050903 C-53.90434692 222.96175903 -53.82184692 221.68300903 -53.73684692 220.36550903 C-53.06865329 213.51652425 -50.03630418 207.33942354 -46.98684692 201.24050903 C-46.4082712 196.38047298 -47.62772206 193.41314629 -49.91653442 189.26785278 C-52.66205847 184.06738935 -53.48188045 179.39873257 -54.04934692 173.61550903 C-54.59366129 167.8481922 -54.59366129 167.8481922 -55.98684692 162.24050903 C-56.0825469 159.90741582 -56.11758606 157.57165699 -56.11965942 155.23660278 C-56.12061615 154.55751358 -56.12157288 153.87842438 -56.12255859 153.17875671 C-56.12323816 151.74564521 -56.12139945 150.31253061 -56.11721802 148.87942505 C-56.11185827 146.6826591 -56.11717474 144.48609683 -56.12356567 142.28933716 C-56.12290502 140.89675858 -56.12162411 139.50418013 -56.11965942 138.11160278 C-56.11853149 136.84244019 -56.11740356 135.57327759 -56.11624146 134.26565552 C-55.98684692 131.24050903 -55.98684692 131.24050903 -54.98684692 129.24050903 C-54.72104199 127.38854203 -54.47386742 125.53387953 -54.23684692 123.67800903 C-53.26932809 117.64906705 -51.31724839 113.30231187 -47.98684692 108.24050903 C-47.38872192 107.27113403 -46.79059692 106.30175903 -46.17434692 105.30300903 C-41.25941121 98.42209904 -36.27325156 92.1280564 -29.74465942 86.71316528 C-27.81877897 85.14999234 -27.81877897 85.14999234 -25.61184692 82.80300903 C-23.98684692 81.24050903 -23.98684692 81.24050903 -21.98684692 81.24050903 C-21.71872192 80.64238403 -21.45059692 80.04425903 -21.17434692 79.42800903 C-19.98767286 77.2420305 -18.8908558 75.82718309 -16.98684692 74.24050903 C-16.32684692 74.24050903 -15.66684692 74.24050903 -14.98684692 74.24050903 C-14.72001099 73.66300903 -14.45317505 73.08550903 -14.17825317 72.49050903 C-12.56853894 69.45052412 -10.46803009 66.92110997 -8.32669067 64.24050903 C-5.53989783 60.08063166 -5.31375243 55.12475884 -5.98684692 50.24050903 C-6.89608608 47.93996523 -6.89608608 47.93996523 -8.04934692 45.67800903 C-10.19673228 41.33803021 -10.17451261 38.89219964 -8.98684692 34.24050903 C-7.33684692 33.58050903 -5.68684692 32.92050903 -3.98684692 32.24050903 C-4.00255737 30.89303589 -4.00255737 30.89303589 -4.01858521 29.51834106 C-4.05264163 26.18986456 -4.07773311 22.86157281 -4.09671021 19.5329895 C-4.10677655 18.09155356 -4.12043073 16.65013808 -4.13772583 15.20877075 C-4.16194704 13.1385697 -4.17332334 11.06863827 -4.18215942 8.99832153 C-4.19786987 7.12877808 -4.19786987 7.12877808 -4.21389771 5.22146606 C-3.95768396 1.85762757 -3.5328144 0.42764934 0 0 Z M0.01315308 39.24050903 C0.01315308 40.89050903 0.01315308 42.54050903 0.01315308 44.24050903 C0.50815308 44.73550903 0.50815308 44.73550903 1.01315308 45.24050903 C1.11180423 46.62050841 1.14394331 48.00542703 1.14596558 49.38894653 C1.14789917 50.64964966 1.14789917 50.64964966 1.14987183 51.93582153 C1.14600464 52.82011841 1.14213745 53.70441528 1.13815308 54.61550903 C1.14395386 55.93035278 1.14395386 55.93035278 1.14987183 57.27175903 C1.14858276 58.11480591 1.1472937 58.95785278 1.14596558 59.82644653 C1.14483765 60.60036743 1.14370972 61.37428833 1.14254761 62.17166138 C0.90389116 65.98746279 -0.31247744 67.72570813 -2.98684692 70.24050903 C-4.05902519 71.44026295 -5.12083025 72.64933539 -6.17434692 73.86550903 C-6.78794067 74.5680481 -7.40153442 75.27058716 -8.03372192 75.99441528 C-9.34097083 77.49775152 -10.64302858 79.00561685 -11.93997192 80.51785278 C-15.69057732 84.83695546 -19.54414937 88.70978493 -23.89309692 92.42019653 C-26.2976369 94.51071077 -28.62444485 96.66022318 -30.92434692 98.86550903 C-32.05163208 99.93671997 -32.05163208 99.93671997 -33.20169067 101.02957153 C-35.18323708 103.4837406 -35.64414792 105.13989902 -35.98684692 108.24050903 C-37.47184692 108.73550903 -37.47184692 108.73550903 -38.98684692 109.24050903 C-42.50894341 115.60267755 -44.44287004 122.03281526 -44.98684692 129.24050903 C-45.48184692 129.73550903 -45.48184692 129.73550903 -45.98684692 130.24050903 C-46.08739294 132.4756659 -46.11766504 134.71403023 -46.11965942 136.95144653 C-46.12061615 137.63421661 -46.12157288 138.31698669 -46.12255859 139.02044678 C-46.12324116 140.47482393 -46.1213816 141.92920409 -46.11721802 143.38357544 C-46.1119525 145.57163714 -46.11711709 147.75948573 -46.12356567 149.94754028 C-46.49116491 164.42014099 -46.49116491 164.42014099 -42.98684692 178.24050903 C-42.32684692 178.24050903 -41.66684692 178.24050903 -40.98684692 178.24050903 C-40.67747192 179.02425903 -40.36809692 179.80800903 -40.04934692 180.61550903 C-39.05809654 183.16381031 -39.05809654 183.16381031 -37.98684692 185.24050903 C-37.49424866 192.90420122 -37.27567909 200.23790675 -40.33059692 207.40847778 C-41.2116645 209.54378772 -41.2116645 209.54378772 -40.98684692 213.24050903 C-41.64684692 213.24050903 -42.30684692 213.24050903 -42.98684692 213.24050903 C-44.38078578 216.02838674 -44.11924668 218.31174397 -44.12728882 221.4322052 C-44.13025994 222.07417636 -44.13323106 222.71614752 -44.13629222 223.37757236 C-44.14499521 225.53852198 -44.14648883 227.6994163 -44.14797974 229.86038208 C-44.1526069 231.40595112 -44.15763142 232.95151902 -44.1630249 234.49708557 C-44.1761635 238.70391411 -44.18259707 242.91072668 -44.18703556 247.11757255 C-44.18996484 249.74586754 -44.19406944 252.37415815 -44.19853973 255.00245094 C-44.21222049 263.2256063 -44.22188347 271.44875167 -44.22574162 279.67191762 C-44.23021948 289.16404541 -44.24775226 298.656029 -44.27674222 308.14811295 C-44.29836894 315.48408607 -44.30844649 322.82001866 -44.30978274 330.15602332 C-44.31083036 334.53759634 -44.31672848 338.9190339 -44.33460236 343.30057335 C-44.35109946 347.42509213 -44.35323063 351.54937391 -44.34446335 355.67391396 C-44.34369376 357.18517314 -44.34802536 358.69644514 -44.3579216 360.20767212 C-44.37067224 362.27669306 -44.36474832 364.34487858 -44.3543396 366.41389465 C-44.35580616 367.5699908 -44.35727272 368.72608694 -44.35878372 369.9172163 C-43.82722969 374.66670512 -42.51447276 378.75506616 -39.00637817 382.16629028 C-38.27805786 382.62390747 -37.54973755 383.08152466 -36.79934692 383.55300903 C-36.08391724 384.02351685 -35.36848755 384.49402466 -34.63137817 384.97879028 C-28.2702342 388.01372308 -22.02297744 388.53702956 -15.09915161 388.51516724 C-14.24919113 388.52027817 -13.39923065 388.5253891 -12.52351379 388.53065491 C-9.73517662 388.54446642 -6.94708908 388.5436001 -4.15872192 388.54129028 C-2.20350047 388.54518267 -0.24827985 388.54951845 1.7069397 388.55427551 C5.79878483 388.56172023 9.89054366 388.56145975 13.98239136 388.55618286 C19.19826489 388.55039951 24.41378202 388.56730042 29.62959671 388.59052753 C33.66706369 388.60533959 37.70444639 388.6061263 41.74193573 388.60301781 C43.66345677 388.60352756 45.58498295 388.6086996 47.50647736 388.61882973 C62.54836154 388.90178814 62.54836154 388.90178814 77.01315308 385.24050903 C77.34315308 384.58050903 77.67315308 383.92050903 78.01315308 383.24050903 C78.98252808 382.80738403 79.95190308 382.37425903 80.95065308 381.92800903 C84.58895772 379.92322892 84.87000279 379.12126781 86.01315308 375.24050903 C86.31197922 372.14644867 86.31197922 372.14644867 86.26712036 368.77070618 C86.27276001 367.4627861 86.27839966 366.15486603 86.28421021 364.80731201 C86.28032184 363.36471502 86.27622552 361.92211858 86.27194214 360.47952271 C86.27465331 358.95483737 86.27821495 357.43015335 86.28256226 355.9054718 C86.29167582 351.76896632 86.28814564 347.63256067 86.28180408 343.49605346 C86.276736 339.16227817 86.28143804 334.82851135 86.28457642 330.49473572 C86.28821487 323.21393299 86.28342135 315.93317083 86.27389526 308.65237427 C86.2630232 300.24601296 86.26652769 291.83974877 86.27754807 283.43338984 C86.28663904 276.20858691 86.28789702 268.98381313 86.28267074 261.75900632 C86.2795594 257.44735042 86.27911841 253.13574008 86.28574371 248.82408714 C86.29154244 244.76685507 86.28747422 240.70974746 86.2759552 236.65252876 C86.27332156 235.16749655 86.27405144 233.68245378 86.27848053 232.19742584 C86.30248062 223.3293124 86.16562231 215.87659662 82.38815308 207.74050903 C79.64807774 200.57959051 79.67430503 191.30168145 82.06784058 184.04129028 C82.89472301 182.28722312 83.7733773 180.55566596 84.72409058 178.86550903 C87.87256806 172.45406398 88.29998526 166.1501129 88.20846558 159.14675903 C88.20563568 158.31462891 88.20280579 157.48249878 88.19989014 156.62515259 C88.18879593 153.99678472 88.16371233 151.36877193 88.13815308 148.74050903 C88.12810933 146.94624316 88.11898594 145.15197189 88.11080933 143.35769653 C88.08889201 138.98516624 88.05443798 134.6128976 88.01315308 130.24050903 C87.35315308 130.24050903 86.69315308 130.24050903 86.01315308 130.24050903 C86.17815308 129.08550903 86.34315308 127.93050903 86.51315308 126.74050903 C86.04929891 109.05947979 70.45211481 96.9009523 58.68893433 85.63504028 C57.70941719 84.70583618 56.72938 83.77717989 55.74874878 82.84915161 C47.88176865 75.34726115 47.88176865 75.34726115 45.32565308 71.86550903 C44.92991089 71.34214966 44.5341687 70.81879028 44.12643433 70.27957153 C41.02375653 64.5967722 40.71999019 58.91079282 40.82565308 52.61550903 C40.82661987 51.50949341 40.82661987 51.50949341 40.8276062 50.38113403 C40.85916078 46.4683666 41.23945274 43.1090107 42.01315308 39.24050903 C28.15315308 39.24050903 14.29315308 39.24050903 0.01315308 39.24050903 Z " fill="#EFFAFA" transform="translate(475.9868469238281,362.7594909667969)"/>
<path d="M0 0 C3.68954546 1.22984849 3.35620309 1.71240619 5 5 C5.763125 5.763125 6.52625 6.52625 7.3125 7.3125 C11.13057253 11.13057253 14.10198927 15.12589064 16.4375 20 C18.01379685 23.02648995 19.9433164 25.23183415 22.1953125 27.76953125 C29.08998208 36.2908653 34.41442203 46.08923471 39 56 C39.31710937 56.67804687 39.63421875 57.35609375 39.9609375 58.0546875 C43.88677624 66.80036786 45.51728769 75.67796794 43.25 85.125 C42.8375 86.07375 42.425 87.0225 42 88 C41.56300781 89.17175781 41.56300781 89.17175781 41.1171875 90.3671875 C39.23771349 95.35445317 37.31362155 99.80274604 34 104 C33.34 104 32.68 104 32 104 C32.66 107.96 33.32 111.92 34 116 C34.99 116.33 35.98 116.66 37 117 C38.09515135 119.32719662 39.0643253 121.61208019 40 124 C42.0889723 128.74755895 42.0889723 128.74755895 46 132 C45.6875 133.9375 45.6875 133.9375 45 136 C44.01 136.33 43.02 136.66 42 137 C41.67 137.99 41.34 138.98 41 140 C37.63566085 138.63323722 36.4238997 137.51205153 35 134.1875 C33.78233557 131.51726737 32.80599899 129.77176351 30.875 127.5 C26.50328763 121.67105017 26.0022369 112.35759784 24.5625 105.3125 C23.27127309 99.01033034 21.96928737 92.73374796 20.375 86.5 C17.98733497 76.52638206 17.16064409 66.17460663 16 56 C15.94119143 59.95826931 15.90613487 63.91642392 15.875 67.875 C15.85824219 68.98359375 15.84148438 70.0921875 15.82421875 71.234375 C15.78835666 77.33093037 16.19313821 82.87309742 17.55029297 88.81591797 C18.15954078 91.77483814 18.19507138 94.61193071 18.125 97.625 C18.10695313 98.64851562 18.08890625 99.67203125 18.0703125 100.7265625 C18.04710937 101.47679687 18.02390625 102.22703125 18 103 C10.89290234 102.45330018 5.26447095 98.98141208 0 94.375 C-2 92 -2 92 -3 89 C-3.639375 88.690625 -4.27875 88.38125 -4.9375 88.0625 C-7.4790234 86.75323037 -7.85049752 85.54532692 -9 83 C-9.66 82.67 -10.32 82.34 -11 82 C-16.90812897 62.94763916 -14.38842322 43.49272827 -8.20849609 24.93579102 C-6.46268953 19.67681133 -5.09873509 14.43146767 -4 9 C-3.34 9 -2.68 9 -2 9 C-1.855625 7.700625 -1.71125 6.40125 -1.5625 5.0625 C-1.125 1.125 -1.125 1.125 0 0 Z " fill="#F4FCFB" transform="translate(504,593)"/>
<path d="M0 0 C1.70993434 1.6222454 3.37347684 3.29413425 5 5 C7.09407125 6.77098597 9.20106472 8.5226711 11.328125 10.25390625 C13.17025147 12.17780937 13.61304519 13.39943607 14 16 C12.35 16 10.7 16 9 16 C9 15.34 9 14.68 9 14 C8.31035156 13.96261719 7.62070312 13.92523437 6.91015625 13.88671875 C5.50056641 13.78810547 5.50056641 13.78810547 4.0625 13.6875 C3.14597656 13.62949219 2.22945312 13.57148437 1.28515625 13.51171875 C-1.48291763 13.08054434 -3.51050365 12.47616708 -6.09375 11.5 C-11.84127003 9.49406906 -17.52404987 9.43989346 -23.5625 9.3125 C-24.66658203 9.27833984 -25.77066406 9.24417969 -26.90820312 9.20898438 C-29.60536703 9.12725214 -32.30223643 9.05786174 -35 9 C-35 9.66 -35 10.32 -35 11 C-34.02160156 11.10957031 -33.04320312 11.21914063 -32.03515625 11.33203125 C-25.72599732 12.07822381 -19.62424082 12.81638737 -13.65234375 15.0859375 C-11.31880864 15.89013075 -9.01581088 16.54339711 -6.62890625 17.1640625 C-5.8294458 17.37377686 -5.02998535 17.58349121 -4.20629883 17.79956055 C-2.60046156 18.21662175 -0.99226465 18.62472726 0.6184082 19.02270508 C5.26778638 20.24711959 8.41432047 21.62228988 12 25 C11.8125 27.3125 11.8125 27.3125 11 30 C8.15174779 32.15543411 5.5051418 33.35089967 2 34 C2 34.66 2 35.32 2 36 C0.27255984 36.65043719 -1.4570369 37.29514844 -3.1875 37.9375 C-4.15042969 38.29714844 -5.11335938 38.65679688 -6.10546875 39.02734375 C-11.37410039 40.79777462 -16.27527981 41.19397401 -21.8125 41.1875 C-22.87609741 41.1862915 -22.87609741 41.1862915 -23.96118164 41.18505859 C-28.98839556 41.12613916 -33.28527951 40.73193814 -38 39 C-38.33 38.34 -38.66 37.68 -39 37 C-42.25005415 35.68798275 -45.52113574 34.52616987 -48.83398438 33.38671875 C-55.47380479 31.02017149 -60.51625709 27.38699433 -66 23 C-67.0725 22.360625 -68.145 21.72125 -69.25 21.0625 C-72 19 -72 19 -72.671875 16.37109375 C-72.83429688 15.19740234 -72.83429688 15.19740234 -73 14 C-71.42516875 12.82188197 -69.83977627 11.65787174 -68.25 10.5 C-67.36828125 9.8503125 -66.4865625 9.200625 -65.578125 8.53125 C-63 7 -63 7 -59 7 C-59 6.34 -59 5.68 -59 5 C-51.50673565 0.71310111 -44.42495322 -2.9302018 -36 -5 C-35.33742188 -5.20367188 -34.67484375 -5.40734375 -33.9921875 -5.6171875 C-22.07394604 -9.13958275 -10.23060659 -6.82040439 0 0 Z " fill="#F4FCFA" transform="translate(515,697)"/>
<path d="M0 0 C4.82209334 7.23314001 6.12713782 14.09482779 6.12025452 22.64389038 C6.12110894 23.2860511 6.12196337 23.92821182 6.12284368 24.58983195 C6.12448194 26.72707191 6.1190044 28.8642322 6.11352539 31.00146484 C6.11324314 32.5392761 6.113402 34.0770875 6.1139679 35.61489868 C6.11425437 39.77971167 6.10838178 43.94449576 6.10139394 48.10930204 C6.09513553 52.46549552 6.09455463 56.82168968 6.09336853 61.17788696 C6.09026255 69.42253071 6.08205904 77.66716117 6.07201904 85.91179907 C6.06083514 95.29990771 6.05534171 104.68801699 6.05032361 114.07613063 C6.03987582 133.38409461 6.02229057 152.69204624 6 172 C5.67 172 5.34 172 5 172 C4.87239644 164.81318319 4.75006947 157.62628477 4.63043213 150.43933105 C4.58527529 147.72715895 4.53926208 145.0150033 4.49261475 142.30285645 C4.17990137 124.02769177 3.96032757 105.7537376 3.83836937 87.47626114 C3.81644042 84.27842108 3.7925542 81.08060212 3.76789856 77.88278198 C3.75569983 76.29955863 3.75569983 76.29955863 3.74325466 74.68435097 C3.72676352 72.55370323 3.71018049 70.4230562 3.69350529 68.2924099 C3.64515226 61.95874823 3.61000641 55.62517314 3.58375072 49.29138374 C3.56408662 45.28410924 3.5322804 41.27699344 3.49743462 37.26982498 C3.48371297 35.39753898 3.47506595 33.52520767 3.47194099 31.65287399 C3.49588407 18.69622688 3.49588407 18.69622688 0.63949585 6.11407471 C0 4 0 4 0 0 Z " fill="#4EC4BA" transform="translate(556,566)"/>
<path d="M0 0 C-0.33 0.99 -0.66 1.98 -1 3 C-2.65204456 3.70211894 -4.31923769 4.36971413 -6 5 C-6.33 5.66 -6.66 6.32 -7 7 C-17.14996371 11.23336125 -28.56017165 10.43792605 -39.32421875 10.3984375 C-41.28091032 10.40046264 -43.23760115 10.40337774 -45.19429016 10.40713501 C-49.27486428 10.41153449 -53.35524011 10.40520226 -57.43579102 10.39111328 C-62.64738259 10.37398866 -67.85851167 10.3838985 -73.07008648 10.40183067 C-77.10314887 10.41270383 -81.1361027 10.40920657 -85.16916847 10.4014473 C-87.09037138 10.39945682 -89.01158439 10.40186371 -90.9327755 10.40888596 C-93.62170698 10.41656276 -96.30990222 10.40481129 -98.9987793 10.38818359 C-100.17028786 10.39729263 -100.17028786 10.39729263 -101.36546326 10.40658569 C-107.01971834 10.34228582 -111.74217311 9.04484247 -117 7 C-114.29541969 5.64770985 -112.57723115 6.12071226 -109.56713867 6.42700195 C-100.68756033 7.18454656 -91.83270824 7.16422162 -82.92578125 7.16796875 C-81.10743688 7.17119054 -79.28909276 7.17455527 -77.4707489 7.17805481 C-73.68288573 7.18400227 -69.89504524 7.18589901 -66.10717773 7.18530273 C-61.27583304 7.18520079 -56.44463423 7.19890601 -51.61332417 7.21607494 C-47.86676881 7.22723432 -44.12024847 7.22922081 -40.37367821 7.22869301 C-38.59285157 7.22986514 -36.81202378 7.23424333 -35.03121376 7.24202538 C-22.80651903 7.29049496 -9.76375298 0 0 0 Z " fill="#65CDC4" transform="translate(560,741)"/>
<path d="M0 0 C0.70125 0.144375 1.4025 0.28875 2.125 0.4375 C3.548125 0.7159375 3.548125 0.7159375 5 1 C5.87850113 1.17302139 6.75700226 1.34604279 7.66212463 1.52430725 C11.54735512 2.07800557 15.365802 2.15999389 19.28100586 2.17358398 C20.0899379 2.180271 20.89886993 2.18695801 21.73231506 2.19384766 C23.48048877 2.20784274 25.22868014 2.21975416 26.97688103 2.22979546 C29.7475569 2.24628848 32.51810165 2.26952843 35.28871155 2.29469299 C43.16335454 2.36524712 51.03804976 2.42556805 58.9128418 2.47680664 C63.73738831 2.50867003 68.56178065 2.5499586 73.38620186 2.59700203 C75.21971419 2.61297101 77.05326192 2.62531601 78.88682365 2.63390923 C81.45457426 2.64611983 84.02196477 2.67029207 86.58959961 2.69702148 C87.34046844 2.69761063 88.09133728 2.69819977 88.86495972 2.69880676 C93.63141222 2.76425719 97.51870597 3.52188358 102 5 C98.78908321 6.60545839 95.30195316 6.10525782 91.77758789 6.06933594 C90.50155197 6.06215294 90.50155197 6.06215294 89.19973755 6.05482483 C86.37396948 6.03707649 83.54835065 6.0113334 80.72265625 5.984375 C78.75646492 5.96767999 76.7902733 5.95101785 74.82408142 5.93438721 C70.69216228 5.89785444 66.56031655 5.85663194 62.4284668 5.81298828 C57.15645574 5.75827377 51.88448787 5.72156798 46.61229801 5.68935776 C42.5447374 5.66135106 38.47738139 5.62028455 34.40997124 5.57575226 C32.46813467 5.55666172 30.52624508 5.54231266 28.58433723 5.53295135 C9.07972905 5.42957403 9.07972905 5.42957403 0 2 C0 1.34 0 0.68 0 0 Z " fill="#BEEFEB" transform="translate(306,700)"/>
<path d="M0 0 C0.33 0 0.66 0 1 0 C1.01030746 0.80829254 1.02061493 1.61658508 1.03123474 2.44937134 C1.12986835 10.12689866 1.23246612 17.80435859 1.33933926 25.48177528 C1.3941274 29.42727882 1.44746831 33.37279007 1.49731445 37.31835938 C1.54561936 41.13746894 1.59797032 44.95650491 1.65294075 48.77552414 C1.67306967 50.22088117 1.69182461 51.66625811 1.70907402 53.11165237 C1.80869755 61.37408517 2.14082315 69.57643814 2.78184509 77.8163147 C3.08600558 82.25513879 3.12625247 86.66984751 3.09765625 91.1171875 C3.0962413 91.98522003 3.09482635 92.85325256 3.09336853 93.74758911 C3.08787532 96.45676475 3.07534532 99.16585035 3.0625 101.875 C3.05747112 103.73828004 3.05291069 105.6015614 3.04882812 107.46484375 C3.03794131 111.97659595 3.02075454 116.48828285 3 121 C0.525 121.495 0.525 121.495 -2 122 C-2.33 121.34 -2.66 120.68 -3 120 C-1.35 120 0.3 120 2 120 C1.94006866 119.33668671 1.88013733 118.67337341 1.81838989 117.98995972 C-0.2530857 94.06656581 -0.24340722 70.21607333 -0.1373291 46.21948242 C-0.11648885 40.98878647 -0.10765569 35.75806967 -0.09765625 30.52734375 C-0.07651197 20.35150976 -0.04259825 10.1757653 0 0 Z " fill="#91DED7" transform="translate(348,477)"/>
<path d="M0 0 C2.37372408 0.01846969 4.74706048 0.02050751 7.12084961 0.02026367 C8.64494151 0.02517316 10.16903079 0.03099898 11.69311523 0.0378418 C12.39524643 0.03895462 13.09737762 0.04006744 13.82078552 0.04121399 C17.47328111 0.07643437 20.86278971 0.34368681 24.41577148 1.20581055 C24.41577148 1.53581055 24.41577148 1.86581055 24.41577148 2.20581055 C22.85064819 2.23553955 22.85064819 2.23553955 21.25390625 2.26586914 C17.34547689 2.34252007 13.43739129 2.43114055 9.52929688 2.52319336 C7.84479611 2.56123931 6.16022083 2.59613254 4.47558594 2.62768555 C2.04001404 2.67387121 -0.39505544 2.73177048 -2.83032227 2.79174805 C-3.57132675 2.80329926 -4.31233124 2.81485046 -5.07579041 2.82675171 C-9.77382988 2.95639041 -14.1028828 3.62971097 -18.66917419 4.74586487 C-20.84330031 5.26803278 -22.98345238 5.56635789 -25.20922852 5.76831055 C-29.02182086 6.14353932 -32.79506919 6.64146767 -36.58422852 7.20581055 C-26.47873419 -1.02829594 -12.3531767 -0.09957025 0 0 Z " fill="#77D2CB" transform="translate(505.584228515625,218.794189453125)"/>
<path d="M0 0 C0.66 0 1.32 0 2 0 C2.07476069 5.22864743 2.12888763 10.45697628 2.16479492 15.68603516 C2.17978093 17.46082996 2.20017682 19.23558837 2.22631836 21.01025391 C2.496778 39.85757891 2.496778 39.85757891 -1 48 C-1.38542969 48.97195313 -1.77085937 49.94390625 -2.16796875 50.9453125 C-2.50441406 51.66460938 -2.84085938 52.38390625 -3.1875 53.125 C-3.70376953 54.24261719 -3.70376953 54.24261719 -4.23046875 55.3828125 C-4.48441406 55.91648437 -4.73835937 56.45015625 -5 57 C-6.29813806 53.41779625 -5.69626309 51.65259732 -4.125 48.25 C-0.94752035 41.36175739 -0.85581104 34.02611415 -0.68359375 26.5625 C-0.66281265 25.79695801 -0.64203156 25.03141602 -0.62062073 24.24267578 C-0.55591864 21.8285302 -0.49661459 19.41428819 -0.4375 17 C-0.39423905 15.35025097 -0.35062252 13.70051122 -0.30664062 12.05078125 C-0.20032031 8.03394967 -0.09883655 4.01702241 0 0 Z " fill="#34BBAF" transform="translate(562,493)"/>
<path d="M0 0 C2.64932667 2.64932667 2.29013332 3.97976894 2.37890625 7.6796875 C2.41306641 8.83726562 2.44722656 9.99484375 2.48242188 11.1875 C2.50884766 12.404375 2.53527344 13.62125 2.5625 14.875 C2.98607488 32.59158584 2.98607488 32.59158584 6 50 C2.04537648 47.36358432 2.03285967 45.57409282 1 41 C0.21339783 35.634162 -0.13881023 30.42638355 -0.09765625 25 C-0.0962413 24.2788501 -0.09482635 23.5577002 -0.09336853 22.81469727 C-0.08783381 20.54308676 -0.07529423 18.27158 -0.0625 16 C-0.05747654 14.44661602 -0.05291512 12.89323048 -0.04882812 11.33984375 C-0.03788589 7.55985672 -0.0206676 3.77994586 0 0 Z " fill="#41C1B5" transform="translate(410,707)"/>
<path d="M0 0 C0.74362793 0.01047363 1.48725586 0.02094727 2.25341797 0.03173828 C3.46191406 0.04140625 3.46191406 0.04140625 4.69482422 0.05126953 C5.95746094 0.07640625 5.95746094 0.07640625 7.24560547 0.10205078 C8.51984375 0.11558594 8.51984375 0.11558594 9.81982422 0.12939453 C11.9202043 0.15299431 14.02043991 0.18886595 16.12060547 0.22705078 C16.12060547 0.55705078 16.12060547 0.88705078 16.12060547 1.22705078 C14.97720703 1.28763672 13.83380859 1.34822266 12.65576172 1.41064453 C11.16486242 1.49503506 9.67397772 1.5796838 8.18310547 1.66455078 C7.05098633 1.72352539 7.05098633 1.72352539 5.89599609 1.78369141 C2.20116359 1.66743102 2.20116359 1.66743102 -0.87939453 3.22705078 C-1.03956619 6.03681596 -1.13889988 8.82478674 -1.19580078 11.63720703 C-1.21658188 12.47924179 -1.23736298 13.32127655 -1.2587738 14.18882751 C-1.32436265 16.88898257 -1.38319729 19.58923795 -1.44189453 22.28955078 C-1.4850709 24.11573319 -1.52868489 25.94190532 -1.57275391 27.76806641 C-1.68005347 32.2542907 -1.78129419 36.74061628 -1.87939453 41.22705078 C-2.53939453 41.22705078 -3.19939453 41.22705078 -3.87939453 41.22705078 C-3.92874663 35.70948602 -3.96509115 30.19204907 -3.98925781 24.67431641 C-3.99932988 22.79636396 -4.01298815 20.91842725 -4.03027344 19.04052734 C-4.05446906 16.34484988 -4.06586536 13.64937932 -4.07470703 10.95361328 C-4.0850296 10.11085846 -4.09535217 9.26810364 -4.10598755 8.39981079 C-4.10638597 6.34083831 -4.00197041 4.28237144 -3.87939453 2.22705078 C-1.87939453 0.22705078 -1.87939453 0.22705078 0 0 Z " fill="#90DBD5" transform="translate(638.87939453125,761.77294921875)"/>
<path d="M0 0 C0.7412915 0.06566162 1.48258301 0.13132324 2.24633789 0.19897461 C16.287182 1.29247953 30.36156818 1.34950492 44.4375 1.5625 C47.11524706 1.60535174 49.79297502 1.6493416 52.47070312 1.69335938 C58.98041061 1.79951003 65.49017342 1.90143849 72 2 C72 2.33 72 2.66 72 3 C63.94159193 3.20101845 55.88304821 3.38463397 47.82376957 3.54658794 C44.08074602 3.62234055 40.33804265 3.70388185 36.59545898 3.79907227 C32.97762629 3.8908697 29.35976188 3.9669127 25.74136162 4.03244972 C24.36708848 4.06003088 22.99291327 4.09310445 21.61891365 4.13199425 C13.70490721 4.35199999 7.34661232 4.0654677 0 1 C0 0.67 0 0.34 0 0 Z " fill="#71D0C8" transform="translate(443,747)"/>
<path d="M0 0 C0.33 0 0.66 0 1 0 C2.20448927 9.00355732 2.33304436 18.03068574 2.55224609 27.09887695 C2.60386065 29.1793223 2.66106556 31.25955925 2.71875 33.33984375 C2.74904297 34.57081787 2.77933594 35.80179199 2.81054688 37.07006836 C2.80520734 39.93422078 2.80520734 39.93422078 4 42 C4.039992 43.99960012 4.04346799 46.00047242 4 48 C-1.53829678 42.46170322 -0.08384256 31.22457729 -0.09765625 23.92578125 C-0.09480889 21.05461052 -0.07949645 18.18361646 -0.0625 15.3125 C-0.05747144 13.82096506 -0.05291095 12.32942846 -0.04882812 10.83789062 C-0.03793804 7.22522538 -0.02074936 3.61262368 0 0 Z " fill="#42C2B7" transform="translate(430,493)"/>
<path d="M0 0 C-0.33 0.99 -0.66 1.98 -1 3 C-2.65204456 3.70211894 -4.31923769 4.36971413 -6 5 C-6.33 5.66 -6.66 6.32 -7 7 C-11.60717908 8.98071328 -15.60732398 9.23514141 -20.5859375 9.1953125 C-21.63861313 9.19106766 -21.63861313 9.19106766 -22.71255493 9.18673706 C-24.93355028 9.17562512 -27.15412845 9.15053834 -29.375 9.125 C-30.88931705 9.11495854 -32.40364049 9.10583473 -33.91796875 9.09765625 C-37.61211258 9.07571554 -41.30601551 9.04124875 -45 9 C-45 8.67 -45 8.34 -45 8 C-43.89712646 7.970271 -43.89712646 7.970271 -42.77197266 7.93994141 C-39.38933373 7.8437501 -36.00723463 7.73445743 -32.625 7.625 C-31.46871094 7.5940625 -30.31242188 7.563125 -29.12109375 7.53125 C-19.14998625 7.19324636 -7.88882238 0 0 0 Z " fill="#54C6BC" transform="translate(560,741)"/>
<path d="M0 0 C0.33 0 0.66 0 1 0 C1.50704109 3.37398089 2.00436536 6.74932621 2.5 10.125 C2.64308594 11.07632813 2.78617188 12.02765625 2.93359375 13.0078125 C3.61961337 17.71194706 4.19271007 22.2304257 4 27 C3.34 26.01 2.68 25.02 2 24 C1.67 26.31 1.34 28.62 1 31 C0.67 31 0.34 31 0 31 C0 20.77 0 10.54 0 0 Z " fill="#41BDB2" transform="translate(519,643)"/>
<path d="M0 0 C0.66 0.33 1.32 0.66 2 1 C2.28792727 5.86523257 1.37904291 9.30973783 -0.4375 13.8125 C-0.88996094 14.95332031 -1.34242188 16.09414063 -1.80859375 17.26953125 C-3 20 -3 20 -4 21 C-4.2819396 23.28684338 -4.44777005 25.57363273 -4.62109375 27.87109375 C-5 30 -5 30 -7 32 C-6.60473976 16.82200673 -6.60473976 16.82200673 -2.98828125 10.8515625 C-1.19036477 7.483134 -0.65655043 3.73197088 0 0 Z " fill="#5DC9C0" transform="translate(428,557)"/>
<path d="M0 0 C1.21911575 0.00666183 1.21911575 0.00666183 2.46286011 0.01345825 C3.38366364 0.01360931 4.30446716 0.01376038 5.25317383 0.01391602 C6.2490451 0.02423859 7.24491638 0.03456116 8.27096558 0.04519653 C9.28915375 0.04802643 10.30734192 0.05085632 11.35638428 0.05377197 C14.61709208 0.06499133 17.87752791 0.09009907 21.13815308 0.11550903 C23.34518037 0.12553656 25.55221195 0.13466281 27.75924683 0.14285278 C33.1773088 0.16493636 38.59521151 0.19843108 44.01315308 0.24050903 C44.01315308 1.23050903 44.01315308 2.22050903 44.01315308 3.24050903 C43.35315308 2.91050903 42.69315308 2.58050903 42.01315308 2.24050903 C40.62497635 2.12324245 39.23166593 2.06369497 37.83883667 2.03518677 C36.9780954 2.01524155 36.11735413 1.99529633 35.23052979 1.9747467 C34.30027985 1.95803421 33.37002991 1.94132172 32.41159058 1.92410278 C31.45999054 1.90332169 30.5083905 1.88254059 29.5279541 1.86112976 C26.48142876 1.7956277 23.43481564 1.73674623 20.38815308 1.67800903 C18.32564392 1.63482444 16.26314371 1.59121017 14.20065308 1.54714966 C9.13824353 1.43994563 4.07574552 1.33868002 -0.98684692 1.24050903 C-1.64684692 2.89050903 -2.30684692 4.54050903 -2.98684692 6.24050903 C-3.61184692 4.36550903 -3.61184692 4.36550903 -3.98684692 2.24050903 C-1.98684692 0.24050903 -1.98684692 0.24050903 0 0 Z " fill="#B2EBE6" transform="translate(475.9868469238281,362.7594909667969)"/>
<path d="M0 0 C0.33 0 0.66 0 1 0 C1.01981934 0.72477539 1.03963867 1.44955078 1.06005859 2.19628906 C1.15656336 5.54783034 1.26572343 8.89885176 1.375 12.25 C1.4059375 13.38953125 1.436875 14.5290625 1.46875 15.703125 C1.69575415 22.36191345 2.30473345 28.73055325 3.58447266 35.27246094 C4.03327763 38.21843575 4.06730075 41.02454103 4 44 C3.34 43.67 2.68 43.34 2 43 C-0.47410936 33.60818861 -0.24874435 23.81971346 -0.125 14.1875 C-0.11493373 12.80143888 -0.10581442 11.41537054 -0.09765625 10.02929688 C-0.07435806 6.68600727 -0.04164862 3.34310269 0 0 Z " fill="#91DED9" transform="translate(216,631)"/>
<path d="M0 0 C10.56 0 21.12 0 32 0 C27.01422478 3.32385015 22.04534917 3.19297975 16.1875 3.1875 C15.12499023 3.1884668 15.12499023 3.1884668 14.04101562 3.18945312 C9.02417101 3.13868469 4.74242947 2.58080982 0 1 C0 0.67 0 0.34 0 0 Z " fill="#9CE2DC" transform="translate(477,735)"/>
<path d="M0 0 C0.33 0 0.66 0 1 0 C1.6209655 10.80939936 -1.40274609 19.33876589 -6 29 C-7.26122076 25.47340182 -6.74690147 23.7822233 -5.1875 20.4375 C-3.19938523 15.80999148 -2.16886824 11.40975337 -1.39453125 6.4453125 C-1.04068098 4.25214155 -0.57356312 2.14462731 0 0 Z " fill="#46C1B6" transform="translate(563,521)"/>
<path d="M0 0 C2.375 0.25 2.375 0.25 3.375 1.25 C3.93807659 8.56999564 2.1837735 15.18717016 0.375 22.25 C0.045 22.25 -0.285 22.25 -0.625 22.25 C-0.97982211 15.03528371 0.2158662 9.12581298 2.375 2.25 C-0.265 2.58 -2.905 2.91 -5.625 3.25 C-3.7774876 0.91630013 -3.0311278 0.28867884 0 0 Z " fill="#ABE8E2" transform="translate(636.625,656.75)"/>
<path d="M0 0 C0.66 0 1.32 0 2 0 C1.67 11.55 1.34 23.1 1 35 C0.67 35 0.34 35 0 35 C-0.167247 30.176384 -0.32784308 25.35261089 -0.48217773 20.52856445 C-0.53566959 18.88625066 -0.59100431 17.24399584 -0.64819336 15.60180664 C-0.72990479 13.24638594 -0.80506639 10.89083518 -0.87890625 8.53515625 C-0.90594131 7.79660904 -0.93297638 7.05806183 -0.96083069 6.2971344 C-1.0129438 4.53214384 -1.0118612 2.7657199 -1 1 C-0.67 0.67 -0.34 0.34 0 0 Z " fill="#C3EEEB" transform="translate(518,638)"/>
<path d="M0 0 C0.33 0.99 0.66 1.98 1 3 C0.34 3 -0.32 3 -1 3 C-1.0825 3.66 -1.165 4.32 -1.25 5 C-2.80382741 11.21530962 -6.17435924 16.89914565 -10 22 C-10.66 22 -11.32 22 -12 22 C-10.125 16.25 -10.125 16.25 -9 14 C-8.34 14 -7.68 14 -7 14 C-6.9175 13.319375 -6.835 12.63875 -6.75 11.9375 C-5.77667472 8.1253093 -4.04192545 5.35929671 -2 2 C-1.34 2 -0.68 2 0 2 C0 1.34 0 0.68 0 0 Z " fill="#B1E9E5" transform="translate(362,359)"/>
<path d="M0 0 C0.66 0 1.32 0 2 0 C0.35236381 5.76672665 -2.26999495 11.12999587 -7 15 C-7.66 15 -8.32 15 -9 15 C-9.04125 15.556875 -9.0825 16.11375 -9.125 16.6875 C-10.46930374 20.24030274 -13.00974189 21.70958953 -16 24 C-13.54045318 18.75296678 -10.09664459 13.97331256 -5.875 10 C-3.1318849 7.07401056 -1.6539881 3.62469732 0 0 Z " fill="#72D3CA" transform="translate(788,705)"/>
<path d="M0 0 C6.46326465 -0.45356243 9.60931587 0.40621058 15 4 C15 4.99 15 5.98 15 7 C16.43750191 8.68798827 16.43750191 8.68798827 18 10 C17.67 10.66 17.34 11.32 17 12 C12.264 8.288 12.264 8.288 10.625 6.5 C8.66586385 4.69156663 6.76463025 3.84310547 4.3125 2.8125 C3.50425781 2.46832031 2.69601562 2.12414062 1.86328125 1.76953125 C1.24839844 1.51558594 0.63351562 1.26164063 0 1 C0 0.67 0 0.34 0 0 Z " fill="#42C1B6" transform="translate(503,691)"/>
<path d="M0 0 C3.3 0.99 6.6 1.98 10 3 C10 3.66 10 4.32 10 5 C10.721875 5.061875 11.44375 5.12375 12.1875 5.1875 C15.84657625 6.24456647 17.49211602 8.20550071 20 11 C15.13127946 10.40440894 11.40671159 8.27522585 7.1875 5.9375 C6.49462891 5.56044922 5.80175781 5.18339844 5.08789062 4.79492188 C3.38871015 3.86916148 1.69390575 2.93537688 0 2 C0 1.34 0 0.68 0 0 Z " fill="#ACE7E3" transform="translate(556,383)"/>
<path d="M0 0 C5.1782685 3.80490164 7.9054315 7.66122933 10.875 13.3125 C11.2771875 14.05306641 11.679375 14.79363281 12.09375 15.55664062 C13.07377864 17.3650268 14.03849915 19.18169507 15 21 C14.01 21 13.02 21 12 21 C10.77319336 19.50292969 10.77319336 19.50292969 9.58984375 17.421875 C9.15736328 16.67292969 8.72488281 15.92398437 8.27929688 15.15234375 C7.83650391 14.35957031 7.39371094 13.56679688 6.9375 12.75 C6.49083984 11.97269531 6.04417969 11.19539063 5.58398438 10.39453125 C3.62681908 6.97168612 1.74097338 3.53844291 0 0 Z " fill="#5ACAC0" transform="translate(549,294)"/>
<path d="M0 0 C9.41806132 -0.13918317 17.38078916 -0.04575203 26 4 C26 4.33 26 4.66 26 5 C20.13391708 4.30710259 14.32260413 3.42848067 8.5 2.4375 C7.67757812 2.29892578 6.85515625 2.16035156 6.0078125 2.01757812 C4.00495459 1.67988697 2.00244041 1.34015815 0 1 C0 0.67 0 0.34 0 0 Z " fill="#D7F6F3" transform="translate(521,221)"/>
<path d="M0 0 C3.15458517 2.10305678 3.87049688 3.23268363 5.5625 6.5 C6.91538465 9.09618986 7.9193271 10.9193271 10 13 C10.69658363 14.65438613 11.36096883 16.32254318 12 18 C12.65213539 19.34050052 13.31379969 20.67661368 14 22 C10.3249148 20.7749716 10.14523895 19.90838352 8.4375 16.5625 C7.08610241 13.93969409 6.0968741 12.0968741 4 10 C4 9.01 4 8.02 4 7 C3.34 7 2.68 7 2 7 C1.34 4.69 0.68 2.38 0 0 Z " fill="#85D9D2" transform="translate(592,255)"/>
<path d="M0 0 C0.33 0 0.66 0 1 0 C1.04898437 1.134375 1.09796875 2.26875 1.1484375 3.4375 C1.2235414 4.95835398 1.29908584 6.47918625 1.375 8 C1.4059375 8.74378906 1.436875 9.48757813 1.46875 10.25390625 C1.669054 14.09306631 2.07704633 17.60013553 3.1015625 21.3125 C3.95066861 24.79752683 4.00934024 25.78854342 3 29 C-0.31484432 22.79662991 -0.36372414 17.50753869 -0.1875 10.5625 C-0.17396484 9.54478516 -0.16042969 8.52707031 -0.14648438 7.47851562 C-0.1113661 4.98511786 -0.06218559 2.49284488 0 0 Z " fill="#3EC2B7" transform="translate(489,643)"/>
<path d="M0 0 C0 0.99 0 1.98 0 3 C-1.79296875 4.5 -1.79296875 4.5 -4.1875 6 C-5.41919922 6.77537109 -5.41919922 6.77537109 -6.67578125 7.56640625 C-7.44277344 8.03949219 -8.20976563 8.51257813 -9 9 C-9.94875 9.639375 -10.8975 10.27875 -11.875 10.9375 C-14 12 -14 12 -17 11 C-16.360625 10.896875 -15.72125 10.79375 -15.0625 10.6875 C-14.0415625 10.3471875 -14.0415625 10.3471875 -13 10 C-12.67 9.01 -12.34 8.02 -12 7 C-9.78515625 5.4296875 -9.78515625 5.4296875 -7.0625 3.875 C-6.16660156 3.35679687 -5.27070312 2.83859375 -4.34765625 2.3046875 C-2.91393472 1.50791048 -1.46708174 0.73354087 0 0 Z " fill="#B5EAE6" transform="translate(758,740)"/>
<path d="M0 0 C0.66 0 1.32 0 2 0 C1.71769531 0.56074219 1.43539063 1.12148438 1.14453125 1.69921875 C0.37939761 3.23732016 -0.37318606 4.78172659 -1.11328125 6.33203125 C-3.67259686 11.62572966 -6.4392617 16.32017252 -10 21 C-10.33 20.34 -10.66 19.68 -11 19 C-10.14453125 17.3359375 -10.14453125 17.3359375 -8.8125 15.375 C-6.55899936 11.93841153 -4.66162332 8.46885232 -2.89453125 4.76171875 C-2 3 -2 3 0 0 Z " fill="#A2E4DF" transform="translate(412,386)"/>
<path d="M0 0 C0.33 0.99 0.66 1.98 1 3 C-0.07680502 4.13125022 -1.16175635 5.25474919 -2.25 6.375 C-2.85328125 7.00148438 -3.4565625 7.62796875 -4.078125 8.2734375 C-5.97479128 9.97735314 -7.73126433 10.88502307 -10 12 C-10.33 12.66 -10.66 13.32 -11 14 C-11.66 13.67 -12.32 13.34 -13 13 C-9.57338216 8.28840047 -5.40481284 4.74963472 -1 1 C-0.67 0.67 -0.34 0.34 0 0 Z " fill="#4BC5BA" transform="translate(771,729)"/>
<path d="M0 0 C4.9159342 0.3597025 7.5420238 1.8839783 11.3203125 4.7890625 C13.41117212 6.29642641 15.56259772 7.18753257 18 8 C18 8.66 18 9.32 18 10 C10.92181403 8.37791571 5.02625782 5.32100751 0 0 Z " fill="#93DFD8" transform="translate(591,402)"/>
<path d="M0 0 C3.07850473 5.92020141 5.3170545 11.30713414 6 18 C2.4892777 15.65951847 2.28311795 14.23193669 1.40625 10.2421875 C0.78943568 6.83784693 0.36858412 3.44011849 0 0 Z " fill="#88DBD4" transform="translate(530,702)"/>
<path d="M0 0 C0.33 0.66 0.66 1.32 1 2 C-0.45398729 3.81598825 -1.91332325 5.62769519 -3.375 7.4375 C-4.59316406 8.95150391 -4.59316406 8.95150391 -5.8359375 10.49609375 C-8 13 -8 13 -10 14 C-9.91638941 11.15723993 -9.47005538 9.47241746 -7.4453125 7.4375 C-6.2114315 6.41353237 -4.96034724 5.40987156 -3.69140625 4.4296875 C-1.74580934 2.91919718 -1.74580934 2.91919718 0 0 Z " fill="#ACE8E3" transform="translate(580,756)"/>
<path d="M0 0 C3 1 3 1 5 4 C5 4.99 5 5.98 5 7 C5.99 7.33 6.98 7.66 8 8 C9.25 9.875 9.25 9.875 10 12 C9.67 12.99 9.34 13.98 9 15 C7.86863414 13.44210317 6.74517679 11.87846143 5.625 10.3125 C4.99851562 9.44238281 4.37203125 8.57226562 3.7265625 7.67578125 C2.10584157 5.16403048 1.00141912 2.80700813 0 0 Z " fill="#9FE3DD" transform="translate(715,582)"/>
<path d="M0 0 C4.29125536 5.2602485 5.14296721 7.91527231 5.0625 14.625 C5.05798828 15.33140625 5.05347656 16.0378125 5.04882812 16.765625 C5.03703875 18.51045275 5.01910324 20.255237 5 22 C4.67 22 4.34 22 4 22 C3.96261719 21.11957031 3.92523438 20.23914063 3.88671875 19.33203125 C3.82097656 18.17058594 3.75523437 17.00914062 3.6875 15.8125 C3.62949219 14.66394531 3.57148438 13.51539063 3.51171875 12.33203125 C2.97166547 8.81550111 1.86253915 6.97107452 0 4 C0 2.68 0 1.36 0 0 Z " fill="#81D8D0" transform="translate(434,541)"/>
<path d="M0 0 C2 1 2 1 2.88671875 3.1796875 C3.15097656 4.06914063 3.41523438 4.95859375 3.6875 5.875 C3.95949219 6.75929688 4.23148437 7.64359375 4.51171875 8.5546875 C5 11 5 11 4 14 C0.68557793 9.53273547 0.33990833 5.37992836 0 0 Z " fill="#68CFC5" transform="translate(411,743)"/>
<path d="M0 0 C1.86562642 1.57297914 2.90238443 2.45510217 3.34057617 4.90112305 C3.32486572 5.59761963 3.30915527 6.29411621 3.29296875 7.01171875 C3.28330078 7.76904297 3.27363281 8.52636719 3.26367188 9.30664062 C3.23853516 10.09232422 3.21339844 10.87800781 3.1875 11.6875 C3.17396484 12.48478516 3.16042969 13.28207031 3.14648438 14.10351562 C3.11117089 16.06929967 3.05736447 18.03473582 3 20 C2.67 20 2.34 20 2 20 C1.93941406 19.2265625 1.87882813 18.453125 1.81640625 17.65625 C1.34107401 11.74750457 0.79085443 5.87491859 0 0 Z " fill="#48C1B5" transform="translate(570,577)"/>
<path d="M0 0 C0.66 0 1.32 0 2 0 C3.03307771 1.76371818 4.05112049 3.53625033 5.0625 5.3125 C5.63097656 6.29863281 6.19945312 7.28476562 6.78515625 8.30078125 C8 11 8 11 7 14 C2.79426865 10.59536033 1.03543762 5.17718812 0 0 Z " fill="#A1E3DF" transform="translate(690,536)"/>
<path d="M0 0 C1.65 0 3.3 0 5 0 C5.33 0.99 5.66 1.98 6 3 C6.928125 3.4640625 6.928125 3.4640625 7.875 3.9375 C10.40597375 5.20298687 11.44848558 6.67272837 13 9 C7.97290493 7.42903279 3.97133531 4.38006951 0 1 C0 0.67 0 0.34 0 0 Z " fill="#AAE6E1" transform="translate(535,283)"/>
<path d="M0 0 C0.33 0 0.66 0 1 0 C1.3396019 1.87387477 1.67138691 3.74916697 2 5.625 C2.185625 6.66914062 2.37125 7.71328125 2.5625 8.7890625 C2.98715797 11.90574865 3.07545206 14.85930812 3 18 C1 17 1 17 0.37890625 15.359375 C-0.11285402 12.29728012 -0.0935003 9.35003047 -0.0625 6.25 C-0.05347656 5.07953125 -0.04445312 3.9090625 -0.03515625 2.703125 C-0.02355469 1.81109375 -0.01195312 0.9190625 0 0 Z " fill="#ABE8E3" transform="translate(217,657)"/>
<path d="M0 0 C0.99 0.495 0.99 0.495 2 1 C2 1.99 2 2.98 2 4 C2.66 4 3.32 4 4 4 C5.5625 6.8125 5.5625 6.8125 7 10 C6.67 10.99 6.34 11.98 6 13 C4.99193149 11.40089132 3.99379615 9.79551738 3 8.1875 C2.443125 7.29417969 1.88625 6.40085937 1.3125 5.48046875 C0 3 0 3 0 0 Z " fill="#54C7BC" transform="translate(759,540)"/>
<path d="M0 0 C0 0.99 0 1.98 0 3 C-0.99 3.66 -1.98 4.32 -3 5 C-3 6.32 -3 7.64 -3 9 C-4.32 8.34 -5.64 7.68 -7 7 C-6.875 5.1875 -6.875 5.1875 -6 3 C-2.9375 1.25 -2.9375 1.25 0 0 Z " fill="#AAE7E2" transform="translate(230,516)"/>
<path d="M0 0 C4.12751449 0.60698743 7.3321148 2.03810791 11 4 C11 4.66 11 5.32 11 6 C11.66 6.33 12.32 6.66 13 7 C10.04705712 6.35632481 7.51718012 5.40722839 4.8125 4.0625 C4.11769531 3.72347656 3.42289063 3.38445312 2.70703125 3.03515625 C1 2 1 2 0 0 Z " fill="#7AD4CD" transform="translate(553,227)"/>
<path d="M0 0 C-8.261959 4.59225513 -8.261959 4.59225513 -13 4 C-8.74310869 0.5314219 -5.44072603 -1.61377467 0 0 Z " fill="#74D3CA" transform="translate(482,222)"/>
<path d="M0 0 C0.99 0.33 1.98 0.66 3 1 C2.360625 1.103125 1.72125 1.20625 1.0625 1.3125 C0.381875 1.539375 -0.29875 1.76625 -1 2 C-1.33 2.99 -1.66 3.98 -2 5 C-3.875 6.25 -3.875 6.25 -6 7 C-6.99 6.67 -7.98 6.34 -9 6 C-7.75 4.5 -7.75 4.5 -6 3 C-4.68 3 -3.36 3 -2 3 C-2 2.34 -2 1.68 -2 1 C-1.34 0.67 -0.68 0.34 0 0 Z " fill="#51C5BB" transform="translate(337,452)"/>
<path d="M0 0 C0 3.63053243 -1.2278255 4.95750337 -3.5546875 7.63671875 C-5.49136818 9.46347972 -7.46012234 10.27432067 -10 11 C-6.79239749 7.19364503 -3.59253891 3.45436433 0 0 Z " fill="#77D4CC" transform="translate(471,436)"/>
<path d="M0 0 C3.43927579 1.2419607 6.25207819 2.55740284 9 5 C9 5.66 9 6.32 9 7 C4.58110387 5.64978174 2.65654657 3.73884332 0 0 Z " fill="#B1E8E4" transform="translate(336,590)"/>
<path d="M0 0 C0.33 0.99 0.66 1.98 1 3 C0.34 3 -0.32 3 -1 3 C-1.0825 3.763125 -1.165 4.52625 -1.25 5.3125 C-2.14615794 8.52373261 -3.21611025 9.29374499 -6 11 C-4.94124926 7.59687262 -3.99097846 4.98646769 -2 2 C-1.34 2 -0.68 2 0 2 C0 1.34 0 0.68 0 0 Z " fill="#9DE2DD" transform="translate(362,359)"/>
<path d="M0 0 C2.94751667 2.74423966 5.22773678 5.36219655 7 9 C6.67 9.99 6.34 10.98 6 12 C4.99466333 10.37829621 3.99588093 8.75252763 3 7.125 C2.443125 6.22007812 1.88625 5.31515625 1.3125 4.3828125 C0 2 0 2 0 0 Z " fill="#60CBC0" transform="translate(706,565)"/>
<path d="M0 0 C3.8063457 0.67170806 7.35206816 1.72746564 11 3 C11 3.33 11 3.66 11 4 C3.375 3.125 3.375 3.125 0 2 C0 1.34 0 0.68 0 0 Z " fill="#B1EBE6" transform="translate(536,222)"/>
<path d="M0 0 C-4.41880243 2.94586829 -6.67767339 3.0985616 -12 3 C-8.2391768 -0.7608232 -5.0273023 -0.25136512 0 0 Z " fill="#BEEDEA" transform="translate(490,221)"/>
<path d="M0 0 C0.66 0.33 1.32 0.66 2 1 C-2.455 3.97 -2.455 3.97 -7 7 C-7.66 6.67 -8.32 6.34 -9 6 C-8.34 5.34 -7.68 4.68 -7 4 C-6.01 4 -5.02 4 -4 4 C-3.67 3.01 -3.34 2.02 -3 1 C-2.01 0.67 -1.02 0.34 0 0 Z " fill="#61CCC2" transform="translate(598,679)"/>
<path d="M0 0 C0.33 0 0.66 0 1 0 C3.27678571 8.03571429 3.27678571 8.03571429 2 12 C-0.13586678 8.79619983 -0.23132175 7.98060033 -0.125 4.3125 C-0.10695313 3.50425781 -0.08890625 2.69601562 -0.0703125 1.86328125 C-0.04710937 1.24839844 -0.02390625 0.63351562 0 0 Z " fill="#72D2CA" transform="translate(490,660)"/>
<path d="M0 0 C3.09592835 3.5087188 4.74194623 6.49197399 6 11 C2.5126363 8.79133632 1.18575914 6.95253048 0 3 C0 2.01 0 1.02 0 0 Z " fill="#A7E6E2" transform="translate(753,530)"/>
<path d="M0 0 C2.20319677 4.40639354 3.10924981 6.97450871 3 12 C0.13700494 9.13700494 0.00578775 7.34147716 -0.0625 3.3125 C-0.041875 2.219375 -0.02125 1.12625 0 0 Z " fill="#52C6BC" transform="translate(431,529)"/>
<path d="M0 0 C0.33 0.66 0.66 1.32 1 2 C-0.26418246 2.69965443 -1.53665402 3.38434763 -2.8125 4.0625 C-3.52019531 4.44535156 -4.22789062 4.82820313 -4.95703125 5.22265625 C-7 6 -7 6 -10 5 C-6.7 3.35 -3.4 1.7 0 0 Z " fill="#97DFD9" transform="translate(276,489)"/>
<path d="M0 0 C2.96404505 2.80804268 5.44499019 5.18315774 7 9 C3.17475764 7.549046 1.80909034 5.61818068 0 2 C0 1.34 0 0.68 0 0 Z " fill="#49C3B9" transform="translate(550,465)"/>
<path d="M0 0 C4.40114397 0.50298788 6.71195019 2.08772731 10 5 C5.2482602 4.56802365 3.07999946 3.67230705 0 0 Z " fill="#4FC5BA" transform="translate(588,780)"/>
<path d="M0 0 C0.99 0.33 1.98 0.66 3 1 C2.030625 1.61875 1.06125 2.2375 0.0625 2.875 C-3.02835362 4.65678846 -3.02835362 4.65678846 -4 7 C-4.66 6.67 -5.32 6.34 -6 6 C-2.25 1.125 -2.25 1.125 0 0 Z " fill="#2FBCAF" transform="translate(764,736)"/>
<path d="M0 0 C1.76462683 3.08809695 2 4.23312136 2 8 C-0.97 7.505 -0.97 7.505 -4 7 C-2.68 6.67 -1.36 6.34 0 6 C0 4.02 0 2.04 0 0 Z " fill="#C6F3F0" transform="translate(520,688)"/>
<path d="M0 0 C2.7972908 2.06756277 3.02692273 3.14440371 3.6875 6.6875 C3.790625 7.780625 3.89375 8.87375 4 10 C1.16625119 6.79663178 0.4794463 4.21912747 0 0 Z " fill="#46C2B6" transform="translate(218,674)"/>
<path d="M0 0 C0.66 0 1.32 0 2 0 C0.74874616 3.75376152 -0.5652404 4.24073289 -4 6 C-4.66 6 -5.32 6 -6 6 C-5.67 5.01 -5.34 4.02 -5 3 C-3.35 2.67 -1.7 2.34 0 2 C0 1.34 0 0.68 0 0 Z " fill="#6FD2C8" transform="translate(618,666)"/>
<path d="M0 0 C2.5625 2.25 2.5625 2.25 5 5 C4.8125 7.3125 4.8125 7.3125 4 9 C0 2.25 0 2.25 0 0 Z " fill="#5ECCC2" transform="translate(680,519)"/>
<path d="M0 0 C0.75 1.625 0.75 1.625 1 4 C-0.9375 7.25 -0.9375 7.25 -3 10 C-4 7 -4 7 -3.22265625 5.17578125 C-2.1484375 3.45052083 -1.07421875 1.72526042 0 0 Z " fill="#4BC4B8" transform="translate(455,314)"/>
<path d="M0 0 C1.32 0.33 2.64 0.66 4 1 C1.1875 3.0625 1.1875 3.0625 -2 5 C-2.99 4.67 -3.98 4.34 -5 4 C-4.0409375 3.8453125 -4.0409375 3.8453125 -3.0625 3.6875 C-2.381875 3.460625 -1.70125 3.23375 -1 3 C-0.67 2.01 -0.34 1.02 0 0 Z " fill="#97E0DB" transform="translate(746,747)"/>
<path d="M0 0 C5.57142857 5.14285714 5.57142857 5.14285714 6 9 C0.42857143 3.85714286 0.42857143 3.85714286 0 0 Z " fill="#52C6BB" transform="translate(237,713)"/>
<path d="M0 0 C0.66 0.33 1.32 0.66 2 1 C2 2.98 2 4.96 2 7 C1.01 7.33 0.02 7.66 -1 8 C-0.67 5.36 -0.34 2.72 0 0 Z " fill="#5DC9C0" transform="translate(428,557)"/>
<path d="M0 0 C2.5625 2.25 2.5625 2.25 5 5 C4.8125 7.3125 4.8125 7.3125 4 9 C0 3.375 0 3.375 0 0 Z " fill="#61CDC3" transform="translate(740,507)"/>
<path d="M0 0 C0.66 0.33 1.32 0.66 2 1 C0.68 3.64 -0.64 6.28 -2 9 C-2.66 9 -3.32 9 -4 9 C-2.25 2.25 -2.25 2.25 0 0 Z " fill="#86DAD3" transform="translate(460,305)"/>
</svg>
